<svg width="681" height="709" viewBox="0 0 681 709" fill="none" xmlns="http://www.w3.org/2000/svg">
<path d="M639.496 0.00235483L622.488 27.2149H587.112L571.465 2.72358H604.8C604.8 2.04326 606.161 2.04331 606.161 2.04331C606.161 2.04331 606.841 2.04336 606.841 1.36305L607.521 0.00235483H526.564L508.876 27.2149H473.499L457.852 2.72358H491.187C491.868 2.04326 492.548 2.04331 492.548 2.04331C493.228 2.04331 493.228 2.04336 493.228 1.36305L493.909 0.00235483H412.951L395.263 27.2149H360.567L344.92 2.72358H378.255C378.255 2.04326 378.935 2.04331 378.935 2.04331H379.616C379.616 2.04331 379.616 2.04336 380.296 1.36305L380.976 0.00235483H299.339L282.331 27.2149H246.954L231.307 2.72358H264.643C264.643 2.04326 266.003 2.04331 266.003 2.04331C266.003 2.04331 266.683 2.04336 266.683 1.36305L267.364 0.00235483H186.406L168.718 27.2149H133.342L117.694 2.72358H151.03H151.71C152.391 2.04326 152.391 2.04331 152.391 2.04331C153.071 2.04331 153.071 2.04336 153.071 1.36305L153.751 0.00235483H72.7937L55.1055 27.2149H20.4094L4.76221 2.72358H38.0976C38.0976 2.04326 38.778 2.04331 38.778 2.04331C38.778 2.04331 39.4583 2.04336 40.1386 1.36305L40.8189 0.00235483H0V4.76454L17.0079 31.2968C17.6882 31.2968 17.6882 31.9772 17.6882 31.9772H18.3685C18.3685 31.9772 18.3685 31.9772 19.0488 31.9772H55.1055L72.7937 59.1898L56.4661 84.3614L40.1386 57.8292C39.4583 57.8292 39.4583 57.1488 39.4583 57.1488L38.0976 56.4685H1.36063L0 55.1079V63.2717L1.36063 61.911H36.737L54.4252 89.804C54.4252 90.4843 55.1055 90.4843 55.1055 90.4843C55.1055 90.4843 55.1055 90.4843 55.7858 91.1646H89.8016L74.1543 115.656H38.778L21.0898 87.0827C20.4094 87.0827 20.4094 86.4024 19.7291 86.4024H0V91.1646H17.6882L34.6961 118.377L17.0079 146.27C16.3276 146.95 16.3276 146.95 16.3276 147.631C16.3276 148.311 16.3276 148.991 17.0079 148.991L33.3354 174.843H1.36063L0 172.802V181.646L17.0079 208.179C17.0079 208.179 17.0079 208.179 17.0079 208.859C17.6882 208.859 17.6882 208.859 17.6882 208.859C18.3685 208.859 18.3685 208.859 18.3685 208.859C18.3685 209.539 18.3685 209.539 19.0488 209.539H55.1055L72.7937 236.072L56.4661 261.243L40.1386 234.711C39.4583 234.711 39.4583 234.711 39.4583 234.711C39.4583 234.031 38.778 234.031 38.778 234.031H1.36063L0 231.99V240.834L1.36063 238.793H36.737L54.4252 267.366C55.1055 267.366 55.1055 267.366 55.1055 267.366C55.1055 268.046 55.1055 268.047 55.7858 268.047H89.8016L74.1543 293.218H38.778L21.0898 264.645C20.4094 263.965 20.4094 263.965 19.7291 263.965C19.0488 263.965 19.0488 263.284 19.0488 263.284H0V268.047H17.6882L34.6961 295.259L17.0079 323.832C16.3276 323.832 16.3276 324.513 16.3276 325.193C16.3276 325.193 16.3276 325.873 17.0079 326.554L33.3354 351.725H1.36063L0 350.365V359.209L17.0079 385.061C17.6882 385.061 17.6882 385.741 17.6882 386.421C18.3685 386.421 18.3685 386.421 18.3685 386.421C18.3685 386.421 18.3685 386.421 19.0488 386.421H55.1055L72.7937 413.634L56.4661 438.806L40.1386 412.273C39.4583 411.593 39.4583 411.593 39.4583 411.593L38.0976 410.913H1.36063L0 409.552V417.716L1.36063 415.675H36.737L54.4252 444.248L55.1055 444.928H55.7858C56.4661 444.928 56.4661 445.609 56.4661 445.609H89.8016L74.1543 470.1H38.778L21.0898 441.527C20.4094 441.527 20.4094 440.846 19.7291 440.846H0V445.609H17.6882L34.6961 472.821L17.0079 500.714C16.3276 501.395 16.3276 501.395 16.3276 502.075C16.3276 502.755 16.3276 502.755 17.0079 503.435L33.3354 529.287H1.36063L0.680315 528.607L0 527.927V536.091L17.0079 562.623C17.6882 563.303 17.6882 563.303 17.6882 563.303C18.3685 563.303 18.3685 563.303 18.3685 563.303C18.3685 563.303 18.3685 563.303 19.0488 563.303H55.1055L72.7937 590.516L56.4661 615.687L40.1386 589.155C39.4583 589.155 39.4583 589.155 39.4583 588.475H38.0976H1.36063L0 586.434V594.598L0.680315 593.917L1.36063 593.237H36.737L54.4252 621.81C55.1055 621.81 55.1055 621.81 55.1055 621.81C55.1055 622.491 55.7858 622.491 55.7858 622.491H89.8016L74.1543 646.982H38.778L21.0898 619.089C20.4094 618.409 20.4094 618.409 19.7291 617.728H0V622.491H17.6882L34.6961 649.703L17.0079 677.596C16.3276 678.276 16.3276 678.957 16.3276 678.957C16.3276 679.637 16.3276 680.317 17.0079 680.317L33.3354 706.169H1.36063H0.680315L0 704.809V708.891H40.8189L57.8268 681.678H93.2032L108.85 706.169H75.515C75.515 706.169 75.515 706.169 74.8346 706.169C74.1543 706.85 74.1543 706.85 73.474 707.53L72.7937 708.891H153.751L171.439 681.678H206.816L222.463 706.169H189.128C188.447 706.85 187.087 706.85 187.087 707.53L186.406 708.891H267.364L285.052 681.678H319.748L335.395 706.169H302.06C301.38 706.85 300.699 706.85 300.019 707.53L299.339 708.891H380.976L397.984 681.678H433.361L449.008 706.169H415.672C414.992 706.85 414.312 706.85 413.632 707.53L412.951 708.891H493.909L511.597 681.678H546.973L562.621 706.169H529.285C528.605 706.85 527.244 706.85 527.244 707.53L526.564 708.891H607.521L625.21 681.678H659.906L675.553 706.169H642.217C641.537 706.85 640.857 706.85 640.176 707.53L639.496 708.891H680.315V704.128L663.987 678.957L680.315 654.465V644.941L666.028 622.491H680.315V617.728H666.028L680.315 595.278V586.434L663.987 561.262L680.315 536.091V527.247L663.987 502.075L680.315 476.903V468.059L666.028 445.609H680.315V440.846H666.028L680.315 417.716V408.872L663.987 383.7L680.315 359.209V349.684L663.987 325.193L680.315 300.021V291.177L666.028 268.047H680.315V263.284H666.028L680.315 240.834V231.99L663.987 206.818L680.315 181.646V172.802L663.987 147.631L680.315 122.459V113.615L666.028 91.1646H680.315V86.4024H666.028L680.315 63.952V54.4276L663.987 29.9362L680.315 4.76454V0.00235483H639.496ZM644.258 60.5504C644.939 59.8701 644.939 59.8701 644.939 59.1898C644.939 58.5095 644.939 58.5095 644.258 57.8292L626.57 29.9362L643.578 2.72358H675.553L659.225 28.5756V29.9362C659.225 29.9362 659.225 30.6165 659.225 31.2968L677.594 59.1898L659.906 86.4024H627.931L644.258 60.5504ZM531.326 60.5504C531.326 59.8701 531.326 59.8701 531.326 59.1898C531.326 58.5095 531.326 58.5095 531.326 57.8292L512.958 29.9362L530.646 2.72358H562.621L546.293 28.5756C545.613 28.5756 545.613 29.2559 545.613 29.9362C545.613 29.9362 545.613 30.6165 546.293 31.2968L563.981 59.1898L546.973 86.4024H514.998L531.326 60.5504ZM417.713 60.5504C417.713 59.8701 418.394 59.8701 418.394 59.1898C418.394 58.5095 417.713 58.5095 417.713 57.8292L400.025 29.9362L417.033 2.72358H449.008L432.68 28.5756L432 29.2559C432 29.2559 432.68 30.6165 432.68 31.2968L450.369 59.1898L433.361 86.4024H401.386L417.713 60.5504ZM304.101 60.5504C304.781 59.8701 304.781 59.8701 304.781 59.1898C304.781 58.5095 304.781 58.5095 304.101 57.8292L286.413 29.9362L303.42 2.72358H335.395L319.068 28.5756V29.9362C319.068 29.9362 319.068 30.6165 319.068 31.2968L337.436 59.1898L319.748 86.4024H287.773L304.101 60.5504ZM191.169 60.5504C191.169 59.8701 191.169 59.8701 191.169 59.1898C191.169 58.5095 191.169 58.5095 191.169 57.8292L172.8 29.9362L190.488 2.72358H222.463L206.135 28.5756C205.455 28.5756 205.455 29.2559 205.455 29.2559C205.455 29.9362 205.455 30.6165 206.135 31.2968L223.824 59.1898L206.816 86.4024H174.841L191.169 60.5504ZM77.5559 60.5504C77.5559 59.8701 78.2362 59.8701 78.2362 59.1898C78.2362 58.5095 77.5559 58.5095 77.5559 57.8292L59.8677 29.9362L76.8756 2.72358H108.85L92.5228 28.5756L91.8425 29.2559C91.8425 29.2559 92.5228 30.6165 92.5228 31.2968L110.211 59.1898L93.2032 86.4024H61.2284L77.5559 60.5504ZM551.055 29.9362L566.702 4.76454L583.71 31.2968C583.71 31.2968 583.71 31.2968 584.391 31.2968C584.391 31.2968 584.391 31.9772 585.071 31.9772H622.488L639.496 59.1898L623.849 84.3614L606.841 57.8292L606.161 57.1488L605.48 56.4685H568.063L551.055 29.9362ZM437.443 29.9362L453.77 4.76454L470.098 31.2968C470.098 31.9772 471.458 31.9772 471.458 31.9772H508.876L526.564 59.1898L510.236 84.3614L493.228 57.8292C493.228 57.8292 493.228 57.1488 492.548 57.1488L491.868 56.4685H455.131L437.443 29.9362ZM340.158 54.4276L323.83 29.9362L340.158 4.76454L357.165 31.2968C357.846 31.2968 357.846 31.9772 357.846 31.9772C357.846 31.9772 358.526 31.9772 359.206 31.9772H395.263L412.951 59.1898L396.624 84.3614L380.296 57.8292C379.616 57.8292 379.616 57.1488 379.616 57.1488H378.935L378.255 56.4685H341.518L340.158 54.4276ZM210.898 29.9362L226.545 4.76454L243.553 31.2968C243.553 31.2968 244.233 31.9772 244.913 31.9772H282.331L299.339 59.1898L283.691 84.3614L266.683 57.8292L266.003 57.1488H265.323L264.643 56.4685H227.906L210.898 29.9362ZM97.285 29.9362L113.613 4.76454L129.94 31.2968C130.62 31.2968 130.62 31.2968 130.62 31.2968L131.301 31.9772C131.301 31.9772 131.301 31.9772 131.981 31.9772H168.718L186.406 59.1898L170.079 84.3614L153.071 57.8292C153.071 57.8292 153.071 57.1488 152.391 57.1488C151.71 57.1488 151.71 56.4685 151.71 56.4685C151.71 56.4685 151.71 56.4685 151.03 56.4685H114.973L97.285 29.9362ZM568.063 61.911H603.439L621.808 89.804C622.488 89.804 622.488 90.4843 622.488 91.1646C622.488 91.1646 623.169 91.1646 623.849 91.1646H657.184L641.537 115.656H606.161L587.792 87.0827L587.112 86.4024H585.751H552.416L568.063 61.911ZM455.131 61.911H489.827L508.195 89.804L508.876 90.4843C508.876 90.4843 508.876 90.4843 508.876 91.1646H510.236H543.572L527.924 115.656H492.548L474.18 87.0827C474.18 87.0827 474.18 86.4024 473.499 86.4024C473.499 86.4024 472.819 86.4024 472.139 86.4024H438.803L455.131 61.911ZM340.158 63.952L341.518 61.911H376.895L394.583 89.804C394.583 90.4843 395.263 90.4843 395.263 90.4843C395.263 90.4843 395.263 90.4843 395.943 91.1646H429.959L414.312 115.656H378.935L361.247 87.0827C360.567 87.0827 360.567 86.4024 359.887 86.4024H325.871L340.158 63.952ZM227.906 61.911H263.282L281.65 89.804C282.331 89.804 282.331 91.1646 282.331 91.1646H283.011H317.027L301.38 115.656H266.003L247.635 87.0827L246.954 86.4024H246.274H212.258L227.906 61.911ZM114.973 61.911H149.669L168.038 89.804C168.038 90.4843 168.038 90.4843 168.718 90.4843C168.718 90.4843 168.718 90.4843 168.718 91.1646H169.398H170.079H203.414L187.767 115.656H152.391L134.022 87.0827C134.022 87.0827 134.022 86.4024 133.342 86.4024H132.661H98.6457L114.973 61.911ZM551.055 147.631L568.743 119.738C569.424 119.057 569.424 118.377 569.424 118.377C569.424 117.697 569.424 117.017 568.743 117.017L552.416 91.1646H584.391L602.079 118.377L583.71 146.27C583.71 146.95 583.71 146.95 583.71 147.631C583.71 148.311 583.71 148.991 583.71 148.991L600.038 174.843H568.063L551.055 147.631ZM437.443 147.631L455.811 119.738C455.811 119.057 455.811 118.377 455.811 118.377C455.811 117.697 455.811 117.017 455.811 117.017L438.803 91.1646H471.458L488.466 118.377L470.098 146.27C470.098 146.95 470.098 147.631 470.098 147.631C470.098 148.311 470.098 148.991 470.098 148.991L487.106 174.843H455.131L437.443 147.631ZM323.83 147.631L340.158 122.459L342.198 119.738C342.198 119.057 342.879 118.377 342.879 118.377C342.879 118.377 342.879 117.697 342.198 117.697L340.158 113.615L325.871 91.1646H357.846L374.854 118.377L357.165 146.27C356.485 146.95 356.485 146.95 356.485 147.631C356.485 148.311 356.485 148.991 357.165 148.991L373.493 174.843H341.518L340.158 171.442L338.797 168.72V170.761L323.83 147.631ZM210.898 147.631L228.586 119.738C229.266 119.057 229.266 118.377 229.266 118.377C229.266 117.697 229.266 117.017 228.586 117.017L212.258 91.1646H244.233L261.921 118.377L243.553 146.27C243.553 146.95 243.553 146.95 243.553 147.631C243.553 148.311 243.553 148.991 243.553 148.991L259.88 174.843H227.906L210.898 147.631ZM97.285 147.631L115.654 119.738C115.654 119.057 115.654 118.377 115.654 118.377C115.654 117.697 115.654 117.017 115.654 117.017L98.6457 91.1646H131.301L148.309 118.377L129.94 146.27C129.94 146.95 129.94 146.95 129.94 147.631C129.94 148.311 129.94 148.991 129.94 148.991L146.948 174.843H114.973L97.285 147.631ZM588.472 147.631L606.161 120.418H642.217H643.578C643.578 120.418 644.258 120.418 644.258 119.738L661.266 93.2055L677.594 118.377L659.906 145.59H623.849C623.849 145.59 623.169 145.59 622.488 145.59L621.808 146.27L604.8 172.802L588.472 147.631ZM475.54 147.631L492.548 120.418H529.285C529.285 120.418 530.646 120.418 530.646 119.738H531.326L548.334 93.2055L563.981 118.377L546.973 145.59H510.236C509.556 145.59 508.195 146.27 508.195 146.27L491.187 172.802L475.54 147.631ZM361.928 147.631L378.935 120.418H415.672C416.353 120.418 417.033 120.418 417.033 119.738H417.713L434.721 93.2055L450.369 118.377L433.361 145.59H396.624C395.943 145.59 395.263 146.27 394.583 146.27L378.255 172.802L361.928 147.631ZM248.315 147.631L266.003 120.418H302.06H303.42C303.42 120.418 304.101 120.418 304.101 119.738L321.109 93.2055L337.436 118.377L319.748 145.59H283.691C283.691 145.59 283.011 145.59 282.331 145.59L281.65 146.27L264.643 172.802L248.315 147.631ZM135.383 147.631L152.391 120.418H189.128C189.128 120.418 189.128 120.418 189.808 120.418C190.488 120.418 190.488 120.418 190.488 119.738L208.176 93.2055L223.824 118.377L206.816 145.59H170.079H169.398C168.718 145.59 168.038 146.27 168.038 146.27L151.03 172.802L135.383 147.631ZM21.7701 147.631L38.778 120.418H75.515H76.1953C76.8756 120.418 76.8756 120.418 77.5559 119.738L94.5638 93.2055L110.211 118.377L93.2032 145.59H56.4661C55.7858 145.59 55.1055 146.27 54.4252 146.27L38.0976 172.802L21.7701 147.631ZM571.465 179.606H604.8C605.48 179.606 606.161 178.925 606.841 178.925L625.21 150.352H659.906L675.553 174.843H642.217C641.537 174.843 640.857 175.524 640.176 176.204L622.488 204.097H587.112L571.465 179.606ZM457.852 179.606H491.187C491.868 179.606 493.228 178.925 493.228 178.925L511.597 150.352H546.973L562.621 174.843H529.285C528.605 174.843 527.244 175.524 527.244 176.204L508.876 204.097H473.499L457.852 179.606ZM344.92 179.606H378.255C378.935 179.606 379.616 178.925 380.296 178.925L397.984 150.352H433.361L449.008 174.843H415.672C414.992 174.843 414.312 175.524 413.632 176.204L395.263 204.097H360.567L344.92 179.606ZM231.307 179.606H264.643C265.323 179.606 266.003 178.925 266.683 178.925L285.052 150.352H319.748L335.395 174.843H302.06C301.38 174.843 300.699 175.524 300.019 176.204L282.331 204.097H246.954L231.307 179.606ZM117.694 179.606H151.03C151.71 179.606 151.71 179.606 151.71 179.606C152.391 179.606 153.071 178.925 153.071 178.925L171.439 150.352H206.816L222.463 174.843H189.128C188.447 174.843 187.087 175.524 187.087 176.204L168.718 204.097H133.342L117.694 179.606ZM4.76221 179.606H38.0976C38.778 179.606 39.4583 178.925 40.1386 178.925L57.8268 150.352H93.2032L108.85 174.843H75.515C75.515 174.843 75.515 174.843 74.8346 174.843C74.1543 174.843 74.1543 175.524 73.474 176.204L55.1055 204.097H20.4094L4.76221 179.606ZM644.258 237.432C644.939 237.432 644.939 236.752 644.939 236.072C644.939 236.072 644.939 235.391 644.258 234.711L626.57 206.818L643.578 179.606H675.553L659.225 205.458V206.818C659.225 207.498 659.225 207.498 659.225 208.179L677.594 236.072L659.906 263.284H627.931L644.258 237.432ZM531.326 237.432C531.326 237.432 531.326 236.752 531.326 236.072C531.326 236.072 531.326 235.391 531.326 234.711L512.958 206.818L530.646 179.606H562.621L546.293 205.458C545.613 206.138 545.613 206.138 545.613 206.818C545.613 207.498 545.613 207.498 546.293 208.179L563.981 236.072L546.973 263.284H514.998L531.326 237.432ZM417.713 237.432C417.713 237.432 418.394 236.752 418.394 236.072C418.394 236.072 417.713 235.391 417.713 234.711L400.025 206.818L417.033 179.606H449.008L432.68 205.458C432.68 206.138 432.68 206.138 432 206.138C432 206.818 432.68 207.498 432.68 208.179L450.369 236.072L433.361 263.284H401.386L417.713 237.432ZM304.101 237.432C304.781 237.432 304.781 236.752 304.781 236.072C304.781 236.072 304.781 235.391 304.101 234.711L286.413 206.818L303.42 179.606H335.395L319.068 205.458V206.818C319.068 207.498 319.068 207.498 319.068 208.179L337.436 236.072L319.748 263.284H287.773L304.101 237.432ZM191.169 237.432C191.169 237.432 191.169 236.752 191.169 236.072C191.169 236.072 191.169 235.391 191.169 234.711L172.8 206.818L190.488 179.606H222.463L206.135 205.458C205.455 206.138 205.455 206.138 205.455 206.818C205.455 207.498 205.455 207.498 206.135 208.179L223.824 236.072L206.816 263.284H174.841L191.169 237.432ZM77.5559 237.432C77.5559 237.432 78.2362 236.752 78.2362 236.072C78.2362 236.072 77.5559 235.391 77.5559 234.711L59.8677 206.818L76.8756 179.606H108.85L92.5228 205.458L91.8425 206.818C91.8425 207.498 92.5228 207.498 92.5228 208.179L110.211 236.072L93.2032 263.284H61.2284L77.5559 237.432ZM551.055 206.818L566.702 181.646L583.71 208.179C583.71 208.179 583.71 208.179 584.391 208.859C584.391 209.539 585.751 209.539 585.751 209.539H622.488L639.496 236.072L623.849 261.243L606.841 234.711H606.161C606.161 234.031 606.161 234.031 605.48 234.031H568.063L551.055 206.818ZM437.443 206.818L453.77 181.646L470.098 208.179C470.778 208.179 470.778 208.179 470.778 208.859H471.458C471.458 209.539 472.139 209.539 472.139 209.539H508.876L526.564 236.072L510.236 261.243L493.228 234.711C493.228 234.711 493.228 234.711 492.548 234.711L491.868 234.031H455.131L437.443 206.818ZM340.158 231.99L323.83 206.818L340.158 181.646L357.165 208.179C357.165 208.179 357.165 208.179 357.165 208.859C357.846 208.859 357.846 208.859 357.846 208.859C357.846 209.539 358.526 209.539 359.206 209.539H395.263L412.951 236.072L396.624 261.243L380.296 234.711C380.296 234.031 378.935 234.031 378.935 234.031H341.518L340.158 231.99ZM210.898 206.818L226.545 181.646L243.553 208.179C243.553 208.179 243.553 208.179 244.233 208.859C244.233 208.859 244.233 208.859 244.913 208.859C244.913 209.539 245.594 209.539 245.594 209.539H282.331L299.339 236.072L283.691 261.243L266.683 234.711C266.683 234.031 266.003 234.031 265.323 234.031H227.906L210.898 206.818ZM97.285 206.818L113.613 181.646L129.94 208.179C130.62 208.179 130.62 208.179 130.62 208.859H131.301C131.301 208.859 131.301 208.859 131.981 208.859L168.718 209.539L186.406 236.072L170.079 261.243L153.071 234.711C153.071 234.031 152.391 234.031 152.391 234.031C151.71 234.031 151.71 234.031 151.71 234.031C151.71 234.031 151.71 234.031 151.03 234.031H114.973L97.285 206.818ZM568.063 238.793H603.439L621.808 267.366C622.488 268.046 622.488 268.047 622.488 268.047C622.488 268.047 623.169 268.047 623.849 268.047H657.184L641.537 293.218H606.161L587.792 264.645C587.792 263.965 587.112 263.965 587.112 263.965L586.432 263.284H552.416L568.063 238.793ZM455.131 238.793H489.827L508.195 267.366C508.195 267.366 508.195 267.366 508.876 267.366C508.876 268.046 508.876 268.047 508.876 268.047H510.236H543.572L527.924 293.218H492.548L474.18 264.645C474.18 263.965 474.18 263.965 473.499 263.965L472.819 263.284H438.803L455.131 238.793ZM340.158 240.834L341.518 238.793H376.895L394.583 267.366C394.583 268.046 395.263 268.047 395.943 268.047H429.959L414.312 293.218H378.935L361.247 264.645C360.567 263.965 360.567 263.965 360.567 263.965L359.887 263.284H325.871L340.158 240.834ZM227.906 238.793H263.282L281.65 267.366C282.331 268.046 282.331 268.047 282.331 268.047C283.011 268.047 283.011 268.047 283.011 268.047H317.027L301.38 293.218H266.003L247.635 264.645C247.635 263.965 246.954 263.965 246.954 263.284H246.274H212.258L227.906 238.793ZM114.973 238.793H149.669L168.038 267.366C168.038 267.366 168.038 267.366 168.718 267.366C168.718 268.046 168.718 268.047 168.718 268.047H169.398H170.079H203.414L187.767 293.218H152.391L134.022 264.645C134.022 263.965 134.022 263.965 133.342 263.965L132.661 263.284H98.6457L114.973 238.793ZM551.055 325.193L568.743 296.62C569.424 296.62 569.424 295.939 569.424 295.259C569.424 295.259 569.424 294.579 568.743 293.898L552.416 268.047H584.391L602.079 295.259L583.71 323.832C583.71 323.832 583.71 324.513 583.71 325.193C583.71 325.193 583.71 325.873 583.71 326.554L600.038 351.725H568.063L551.055 325.193ZM437.443 325.193L455.811 296.62C455.811 296.62 455.811 295.939 455.811 295.259C455.811 295.259 455.811 294.579 455.811 293.898L438.803 268.047H471.458L488.466 295.259L470.098 323.832C470.098 323.832 470.098 324.513 470.098 325.193C470.098 325.193 470.098 325.873 470.098 326.554L487.106 351.725H455.131L437.443 325.193ZM340.158 349.684L323.83 325.193L340.158 300.021L342.198 296.62C342.198 296.62 342.879 295.939 342.879 295.259C342.879 295.259 342.879 295.259 342.198 294.579L340.158 291.177L325.871 268.047H357.846L374.854 295.259L357.165 323.832C356.485 323.832 356.485 324.513 356.485 325.193C356.485 325.193 356.485 325.873 357.165 326.554L373.493 351.725H341.518L340.158 349.684ZM210.898 325.193L228.586 296.62C229.266 296.62 229.266 295.939 229.266 295.259C229.266 295.259 229.266 294.579 228.586 293.898L212.258 268.047H244.233L261.921 295.259L243.553 323.832C243.553 323.832 243.553 324.513 243.553 325.193C243.553 325.193 243.553 325.873 243.553 326.554L259.88 351.725H227.906L210.898 325.193ZM97.285 325.193L115.654 296.62C115.654 296.62 115.654 295.939 115.654 295.259C115.654 295.259 115.654 294.579 115.654 293.898L98.6457 268.047H131.301L148.309 295.259L129.94 323.832C129.94 323.832 129.94 324.513 129.94 325.193C129.94 325.193 129.94 325.873 129.94 326.554L146.948 351.725H114.973L97.285 325.193ZM588.472 325.193L606.161 297.98H642.217L643.578 297.3H644.258L661.266 270.087L677.594 295.259L659.906 322.472H623.849C623.849 322.472 623.169 322.472 622.488 322.472C622.488 322.472 621.808 323.152 621.808 323.832L604.8 349.684L588.472 325.193ZM475.54 325.193L492.548 297.98H529.285C529.285 297.3 530.646 297.3 530.646 297.3L531.326 296.62L548.334 270.087L563.981 295.259L546.973 322.472H510.236C509.556 322.472 508.195 323.152 508.195 323.832L491.187 349.684L475.54 325.193ZM361.928 325.193L378.935 297.98H415.672L417.033 297.3H417.713L434.721 270.087L450.369 295.259L433.361 322.472H396.624C395.943 322.472 395.263 323.152 394.583 323.832L378.255 349.684L361.928 325.193ZM248.315 325.193L266.003 297.98H302.06L303.42 297.3L304.101 296.62L321.109 270.087L337.436 295.259L319.748 322.472H283.691C283.691 322.472 283.011 322.472 282.331 322.472C282.331 322.472 281.65 323.152 281.65 323.832L264.643 349.684L248.315 325.193ZM135.383 325.193L152.391 297.98H189.128C189.128 297.98 189.128 297.98 189.808 297.98C190.488 297.98 190.488 297.3 190.488 297.3L191.169 296.62L208.176 270.087L223.824 295.259L206.816 322.472H170.079H169.398C168.718 322.472 168.038 323.152 168.038 323.832L151.03 349.684L135.383 325.193ZM21.7701 325.193L38.778 297.98H75.515H76.1953L76.8756 297.3H77.5559L94.5638 270.087L110.211 295.259L93.2032 322.472H56.4661C55.7858 322.472 55.1055 323.152 54.4252 323.832L38.0976 349.684L21.7701 325.193ZM571.465 357.168H604.8C604.8 356.487 605.48 356.487 605.48 356.487L606.841 355.807L625.21 327.234H659.906L675.553 351.725H642.217C641.537 352.406 641.537 352.406 640.857 352.406L622.488 381.659H587.112L571.465 357.168ZM457.852 357.168H491.187C491.187 356.487 491.868 356.487 491.868 356.487C492.548 356.487 493.228 355.807 493.228 355.807L511.597 327.234H546.973L562.621 351.725H529.285C529.285 352.406 527.924 352.406 527.924 352.406H527.244L508.876 381.659H473.499L457.852 357.168ZM344.92 357.168H378.255C378.935 356.487 378.935 356.487 378.935 356.487H379.616C379.616 356.487 379.616 355.807 380.296 355.807L397.984 327.234H433.361L449.008 351.725H415.672C415.672 352.406 414.312 352.406 414.312 352.406L395.263 381.659H360.567L344.92 357.168ZM231.307 357.168H264.643C264.643 356.487 265.323 356.487 265.323 356.487H266.003L266.683 355.807L285.052 327.234H319.748L335.395 351.725H302.06C301.38 352.406 301.38 352.406 300.699 352.406L282.331 381.659H246.954L231.307 357.168ZM117.694 357.168H151.03C151.71 357.168 151.71 357.168 151.71 357.168C152.391 357.168 152.391 356.487 152.391 356.487C153.071 356.487 153.071 355.807 153.071 355.807L171.439 327.234H206.816L222.463 351.725H189.128C189.128 352.406 187.767 352.406 187.767 352.406L168.718 381.659H133.342L117.694 357.168ZM4.76221 357.168H38.0976C38.778 356.487 38.778 356.487 38.778 356.487C38.778 356.487 39.4583 355.807 40.1386 355.807L57.8268 327.234H93.2032L108.85 351.725H75.515C75.515 351.725 75.515 351.725 74.8346 351.725C74.8346 352.406 74.1543 352.406 74.1543 352.406L55.1055 381.659H20.4094L4.76221 357.168ZM644.258 414.995C644.939 414.314 644.939 414.314 644.939 413.634C644.939 412.954 644.939 412.273 644.258 412.273L626.57 383.7L643.578 357.168H675.553L659.225 383.02V383.7C659.225 384.38 659.225 385.061 659.225 385.061L677.594 413.634L659.906 440.846H627.931L644.258 414.995ZM531.326 414.995C531.326 414.314 531.326 414.314 531.326 413.634C531.326 412.954 531.326 412.273 531.326 412.273L512.958 383.7L530.646 357.168H562.621L546.293 382.339C545.613 383.02 545.613 383.7 545.613 383.7C545.613 384.38 545.613 385.061 546.293 385.061L563.981 413.634L546.973 440.846H514.998L531.326 414.995ZM417.713 414.995C417.713 414.314 418.394 414.314 418.394 413.634C418.394 412.954 417.713 412.273 417.713 412.273L400.025 383.7L417.033 357.168H449.008L432.68 383.02L432 383.7C432 384.38 432.68 385.061 432.68 385.061L450.369 413.634L433.361 440.846H401.386L417.713 414.995ZM304.101 414.995C304.781 414.314 304.781 414.314 304.781 413.634C304.781 412.954 304.781 412.273 304.101 412.273L286.413 383.7L303.42 357.168H335.395L319.068 383.02V383.7C319.068 384.38 319.068 385.061 319.068 385.061L337.436 413.634L319.748 440.846H287.773L304.101 414.995ZM191.169 414.995C191.169 414.314 191.169 414.314 191.169 413.634C191.169 412.954 191.169 412.273 191.169 412.273L172.8 383.7L190.488 357.168H222.463L206.135 382.339C205.455 383.02 205.455 383.7 205.455 383.7C205.455 384.38 205.455 385.061 206.135 385.061L223.824 413.634L206.816 440.846H174.841L191.169 414.995ZM77.5559 414.995C77.5559 414.314 78.2362 413.634 78.2362 413.634C78.2362 412.954 77.5559 412.273 77.5559 412.273L59.8677 383.7L76.8756 357.168H108.85L92.5228 383.02L91.8425 383.7C91.8425 384.38 92.5228 385.061 92.5228 385.061L110.211 413.634L93.2032 440.846H61.2284L77.5559 414.995ZM551.055 383.7L566.702 359.209L583.71 385.061C583.71 385.741 583.71 385.741 584.391 385.741C584.391 385.741 584.391 385.741 585.071 386.421H622.488L639.496 413.634L623.849 438.806L606.841 412.273C606.841 411.593 606.161 411.593 606.161 411.593L604.8 410.913H568.063L551.055 383.7ZM437.443 383.7L453.77 359.209L470.098 385.061C470.778 385.741 470.778 385.741 470.778 385.741L471.458 386.421H508.876L526.564 413.634L510.236 438.806L493.228 412.273C493.228 412.273 493.228 411.593 492.548 411.593L491.868 410.913H455.131L437.443 383.7ZM210.898 383.7L226.545 359.209L243.553 385.061C243.553 385.741 243.553 385.741 244.233 385.741C244.233 385.741 244.233 385.741 244.913 386.421H282.331L299.339 413.634L283.691 438.806L266.683 412.273C266.683 411.593 266.003 411.593 266.003 411.593C266.003 411.593 266.003 411.593 265.323 411.593L264.643 410.913H227.906L210.898 383.7ZM97.285 383.7L113.613 359.209L129.94 385.061C130.62 385.741 130.62 385.741 130.62 385.741L131.301 386.421C131.981 386.421 131.981 386.421 131.981 386.421H168.718L186.406 413.634L170.079 438.806L153.071 412.273C153.071 412.273 153.071 411.593 152.391 411.593L151.03 410.913H114.973L97.285 383.7ZM340.158 408.872L323.83 383.7L340.158 359.209L357.165 385.061C357.846 385.061 357.846 385.741 357.846 386.421C357.846 386.421 358.526 386.421 359.206 386.421H395.263L412.951 413.634L396.624 438.806L380.296 412.273C379.616 412.273 379.616 411.593 379.616 411.593H378.935L378.255 410.913H341.518L340.158 408.872ZM568.063 415.675H603.439L621.808 444.248V444.928C622.488 444.928 622.488 444.928 622.488 445.609C622.488 445.609 623.169 445.609 623.849 445.609H657.184L641.537 470.1H606.161L587.792 441.527L587.112 440.846H585.751H552.416L568.063 415.675ZM455.131 415.675H489.827L508.195 444.248V444.928H508.876C508.876 444.928 508.876 444.928 509.556 445.609H543.572L527.924 470.1H492.548L474.18 441.527C474.18 441.527 474.18 441.527 473.499 440.846C473.499 440.846 472.819 440.846 472.139 440.846H438.803L455.131 415.675ZM340.158 417.716L341.518 415.675H376.895L394.583 444.248L395.263 444.928C395.263 444.928 395.943 444.928 395.943 445.609H429.959L414.312 470.1H378.935L361.247 441.527C360.567 441.527 360.567 440.846 360.567 440.846C359.887 440.846 359.206 440.846 359.206 440.846H325.871L340.158 417.716ZM227.906 415.675H263.282L281.65 444.248V444.928C282.331 444.928 282.331 444.928 282.331 445.609H283.011H317.027L301.38 470.1H266.003L247.635 441.527L246.954 440.846H246.274H212.258L227.906 415.675ZM114.973 415.675H149.669L168.038 444.248C168.038 444.248 168.038 444.928 168.718 444.928L169.398 445.609H170.079H203.414L187.767 470.1H152.391L134.022 441.527C134.022 441.527 134.022 440.846 133.342 440.846H132.661H98.6457L114.973 415.675ZM551.055 502.075L568.743 474.182C569.424 473.502 569.424 472.821 569.424 472.821C569.424 472.141 569.424 471.461 568.743 471.461L552.416 445.609H584.391L602.079 472.821L583.71 500.714C583.71 501.395 583.71 501.395 583.71 502.075C583.71 502.755 583.71 502.755 583.71 503.435L600.038 529.287H568.063L551.055 502.075ZM437.443 502.075L455.811 474.182C455.811 473.502 455.811 472.821 455.811 472.821C455.811 472.141 455.811 471.461 455.811 471.461L438.803 445.609H471.458L488.466 472.821L470.098 500.714C470.098 501.395 470.098 501.395 470.098 502.075C470.098 502.755 470.098 502.755 470.098 503.435L487.106 529.287H455.131L437.443 502.075ZM323.83 502.075L340.158 476.903L342.198 474.182C342.198 473.502 342.879 472.821 342.879 472.821C342.879 472.141 342.879 472.141 342.198 472.141L340.158 468.059L325.871 445.609H357.846L374.854 472.821L357.165 500.714C356.485 501.395 356.485 501.395 356.485 502.075C356.485 502.755 356.485 502.755 357.165 503.435L373.493 529.287H341.518L340.158 526.566L338.797 523.845V525.206L323.83 502.075ZM210.898 502.075L228.586 474.182C229.266 473.502 229.266 472.821 229.266 472.821C229.266 472.141 229.266 471.461 228.586 471.461L212.258 445.609H244.233L261.921 472.821L243.553 500.714C243.553 501.395 243.553 501.395 243.553 502.075C243.553 502.755 243.553 502.755 243.553 503.435L259.88 529.287H227.906L210.898 502.075ZM97.285 502.075L115.654 474.182C115.654 473.502 115.654 472.821 115.654 472.821C115.654 472.141 115.654 471.461 115.654 471.461L98.6457 445.609H131.301L148.309 472.821L129.94 500.714C129.94 501.395 129.94 501.395 129.94 502.075C129.94 502.755 129.94 502.755 129.94 503.435L146.948 529.287H114.973L97.285 502.075ZM588.472 502.075L606.161 474.862H642.217C642.217 474.862 642.898 474.862 643.578 474.862C643.578 474.862 644.258 474.862 644.258 474.182L661.266 447.65L677.594 472.821L659.906 499.354H623.849C623.169 499.354 623.169 499.354 623.169 500.034C623.169 500.034 621.808 500.034 621.808 500.714L604.8 527.247L588.472 502.075ZM475.54 502.075L492.548 474.862H529.285C529.965 474.862 530.646 474.862 530.646 474.182H531.326L548.334 447.65L563.981 472.821L546.973 499.354H510.236C510.236 499.354 509.556 499.354 509.556 500.034C508.876 500.034 508.195 500.034 508.195 500.714L491.187 527.247L475.54 502.075ZM378.255 527.247L361.928 502.075L378.935 474.862H415.672H417.033L417.713 474.182L434.721 447.65L450.369 472.821L433.361 499.354H396.624C395.943 499.354 395.943 500.034 395.943 500.034C395.263 500.034 395.263 500.034 394.583 500.714L378.255 527.247ZM248.315 502.075L266.003 474.862H302.06H303.42C303.42 474.862 304.101 474.862 304.101 474.182L321.109 447.65L337.436 472.821L319.748 499.354H283.691C283.011 499.354 283.011 499.354 283.011 500.034C283.011 500.034 283.011 500.034 282.331 500.034C282.331 500.034 281.65 500.034 281.65 500.714L264.643 527.247L248.315 502.075ZM135.383 502.075L152.391 474.862H189.128C189.128 474.862 189.128 474.862 189.808 474.862C190.488 474.862 190.488 474.862 190.488 474.182L208.176 447.65L223.824 472.821L206.816 499.354H170.079C170.079 499.354 169.398 499.354 169.398 500.034C168.718 500.034 168.038 500.034 168.038 500.714L151.03 527.247L135.383 502.075ZM21.7701 502.075L38.778 474.862H75.515H76.1953C76.1953 474.862 76.8756 474.862 76.8756 474.182H77.5559L94.5638 447.65L110.211 472.821L93.2032 499.354H56.4661C55.7858 499.354 55.7858 500.034 55.7858 500.034C55.1055 500.034 55.1055 500.034 54.4252 500.714L38.0976 527.247L21.7701 502.075ZM571.465 534.05H604.8C605.48 534.05 606.161 533.369 606.841 532.689L625.21 504.796H659.906L675.553 529.287H642.217C641.537 529.287 640.857 529.968 640.176 529.968L622.488 558.541H587.112L571.465 534.05ZM457.852 534.05H491.187C491.868 534.05 493.228 533.369 493.228 532.689L511.597 504.796H546.973L562.621 529.287H529.285C528.605 529.287 527.244 529.968 527.244 529.968L508.876 558.541H473.499L457.852 534.05ZM344.92 534.05H378.255C378.935 534.05 379.616 533.369 380.296 532.689L397.984 504.796H433.361L449.008 529.287H415.672C414.992 529.287 414.312 529.968 413.632 529.968L395.263 558.541H360.567L344.92 534.05ZM231.307 534.05H264.643C265.323 534.05 266.003 533.369 266.683 532.689L285.052 504.796H319.748L335.395 529.287H302.06C301.38 529.287 300.699 529.968 300.019 529.968L282.331 558.541H246.954L231.307 534.05ZM117.694 534.05H151.03C151.71 534.05 151.71 534.05 151.71 534.05C152.391 534.05 153.071 533.369 153.071 532.689L171.439 504.796H206.816L222.463 529.287H189.128C188.447 529.287 187.087 529.968 187.087 529.968L168.718 558.541H133.342L117.694 534.05ZM4.76221 534.05H38.0976C38.778 534.05 39.4583 533.369 40.1386 532.689L57.8268 504.796H93.2032L108.85 529.287H75.515C75.515 529.287 75.515 529.287 74.8346 529.287C74.1543 529.287 74.1543 529.968 73.474 529.968L55.1055 558.541H20.4094L4.76221 534.05ZM644.258 591.876C644.939 591.876 644.939 591.196 644.939 590.516C644.939 590.516 644.939 589.835 644.258 589.155L626.57 561.262L643.578 534.05H675.553L659.225 559.902C659.225 559.902 659.225 559.902 659.225 560.582C659.225 560.582 659.225 561.943 659.225 562.623L677.594 590.516L659.906 617.728H627.931L644.258 591.876ZM531.326 591.876C531.326 591.876 531.326 591.196 531.326 590.516C531.326 590.516 531.326 589.835 531.326 589.155L512.958 561.262L530.646 534.05H562.621L546.293 559.902C545.613 559.902 545.613 560.582 545.613 561.262C545.613 561.262 545.613 561.943 546.293 562.623L563.981 590.516L546.973 617.728H514.998L531.326 591.876ZM417.713 591.876C417.713 591.876 418.394 591.196 418.394 590.516C418.394 590.516 417.713 589.835 417.713 589.155L400.025 561.262L417.033 534.05H449.008L432.68 559.902V560.582L432 561.262C432 561.262 432.68 561.943 432.68 562.623L450.369 590.516L433.361 617.728H401.386L417.713 591.876ZM304.101 591.876C304.781 591.876 304.781 591.196 304.781 590.516C304.781 590.516 304.781 589.835 304.101 589.155L286.413 561.262L303.42 534.05H335.395L319.068 559.902C319.068 559.902 319.068 559.902 319.068 560.582C319.068 560.582 319.068 561.943 319.068 562.623L337.436 590.516L319.748 617.728H287.773L304.101 591.876ZM191.169 591.876C191.169 591.876 191.169 591.196 191.169 590.516C191.169 590.516 191.169 589.835 191.169 589.155L172.8 561.262L190.488 534.05H222.463L206.135 559.902C205.455 559.902 205.455 560.582 205.455 561.262C205.455 561.262 205.455 561.943 206.135 562.623L223.824 590.516L206.816 617.728H174.841L191.169 591.876ZM77.5559 591.876C77.5559 591.876 78.2362 591.196 78.2362 590.516C78.2362 590.516 77.5559 589.835 77.5559 589.155L59.8677 561.262L76.8756 534.05H108.85L92.5228 559.902C92.5228 559.902 92.5228 560.582 91.8425 560.582C91.8425 561.262 92.5228 561.943 92.5228 562.623L110.211 590.516L93.2032 617.728H61.2284L77.5559 591.876ZM551.055 561.262L566.702 536.091L583.71 562.623C583.71 562.623 583.71 562.623 584.391 562.623C584.391 563.303 584.391 563.303 585.071 563.303H622.488L639.496 590.516L623.849 615.687L606.841 589.155C606.841 589.155 606.161 589.155 606.161 588.475H604.8H568.063L551.055 561.262ZM437.443 561.262L453.77 536.091L470.098 562.623L470.778 563.303H471.458H508.876L526.564 590.516L510.236 615.687L493.228 589.155C493.228 589.155 493.228 589.155 492.548 588.475C492.548 588.475 491.868 588.475 491.187 588.475H455.131L437.443 561.262ZM340.158 586.434L323.83 561.262L340.158 536.091L357.165 562.623C357.846 563.303 357.846 563.303 357.846 563.303C357.846 563.303 358.526 563.303 359.206 563.303H395.263L412.951 590.516L396.624 615.687L380.296 589.155C379.616 589.155 379.616 589.155 379.616 588.475C379.616 588.475 379.616 588.475 378.935 588.475H341.518L340.158 586.434ZM210.898 561.262L226.545 536.091L243.553 562.623C243.553 563.303 244.233 563.303 244.913 563.303H282.331L299.339 590.516L283.691 615.687L266.683 589.155C266.683 589.155 266.003 589.155 266.003 588.475C266.003 588.475 266.003 588.475 265.323 588.475H227.906L210.898 561.262ZM97.285 561.262L113.613 536.091L129.94 562.623C130.62 562.623 130.62 562.623 130.62 562.623V563.303H131.301C131.301 563.303 131.301 563.303 131.981 563.303H168.718L186.406 590.516L170.079 615.687L153.071 589.155C153.071 589.155 153.071 589.155 152.391 588.475C151.71 588.475 151.71 588.475 151.71 588.475C151.71 588.475 151.71 588.475 151.03 588.475H114.973L97.285 561.262ZM568.063 593.237H603.439L621.808 621.81L622.488 622.491C622.488 622.491 623.169 622.491 623.849 622.491H657.184L641.537 646.982H606.161L587.792 619.089C587.792 618.409 587.112 618.409 587.112 617.728H585.751H552.416L568.063 593.237ZM455.131 593.237H489.827L508.195 621.81H508.876C508.876 622.491 508.876 622.491 509.556 622.491H543.572L527.924 646.982H492.548L474.18 619.089C474.18 618.409 474.18 618.409 473.499 617.728C473.499 617.728 472.819 617.728 472.139 617.728H438.803L455.131 593.237ZM340.158 595.278L341.518 593.237H376.895L394.583 621.81C394.583 622.491 395.943 622.491 395.943 622.491H429.959L414.312 646.982H378.935L361.247 619.089C360.567 618.409 360.567 618.409 359.887 617.728H325.871L340.158 595.278ZM227.906 593.237H263.282L281.65 621.81C282.331 622.491 282.331 622.491 282.331 622.491H283.011H317.027L301.38 646.982H266.003L247.635 619.089C247.635 618.409 246.954 618.409 246.954 617.728H246.274H212.258L227.906 593.237ZM114.973 593.237H149.669L168.038 621.81L169.398 622.491H170.079H203.414L187.767 646.982H152.391L134.022 619.089C134.022 618.409 134.022 618.409 133.342 617.728H132.661H98.6457L114.973 593.237ZM551.055 678.957L568.743 651.064C569.424 650.384 569.424 650.384 569.424 649.703C569.424 649.023 569.424 649.023 568.743 648.343L552.416 622.491H584.391L602.079 649.703L583.71 677.596C583.71 678.276 583.71 678.957 583.71 678.957C583.71 679.637 583.71 680.317 583.71 680.317L600.038 706.169H568.063L551.055 678.957ZM437.443 678.957L455.811 651.064C455.811 650.384 455.811 650.384 455.811 649.703C455.811 649.023 455.811 649.023 455.811 648.343L438.803 622.491H471.458L488.466 649.703L470.098 677.596C470.098 678.276 470.098 678.957 470.098 678.957C470.098 679.637 470.098 680.317 470.098 680.317L487.106 706.169H455.131L437.443 678.957ZM323.83 678.957L340.158 654.465L342.198 651.064C342.198 650.384 342.879 650.384 342.879 649.703C342.879 649.703 342.879 649.703 342.198 649.023L340.158 644.941L325.871 622.491H357.846L374.854 649.703L357.165 677.596C356.485 678.276 356.485 678.957 356.485 678.957C356.485 679.637 356.485 680.317 357.165 680.317L373.493 706.169H341.518L340.158 702.768L338.797 698.686V702.087L323.83 678.957ZM210.898 678.957L228.586 651.064C229.266 650.384 229.266 650.384 229.266 649.703C229.266 649.023 229.266 649.023 228.586 648.343L212.258 622.491H244.233L261.921 649.703L243.553 677.596C243.553 678.276 243.553 678.957 243.553 678.957C243.553 679.637 243.553 680.317 243.553 680.317L259.88 706.169H227.906L210.898 678.957ZM97.285 678.957L115.654 651.064C115.654 650.384 115.654 650.384 115.654 649.703C115.654 649.023 115.654 649.023 115.654 648.343L98.6457 622.491H131.301L148.309 649.703L129.94 677.596C129.94 678.276 129.94 678.957 129.94 678.957C129.94 679.637 129.94 680.317 129.94 680.317L146.948 706.169H114.973L97.285 678.957ZM475.54 678.957L492.548 652.424H529.285C529.285 651.744 529.965 651.744 529.965 651.744C529.965 651.064 531.326 651.064 531.326 651.064L548.334 624.532L563.981 649.703L546.973 676.916H510.236C509.556 676.916 508.195 677.596 508.195 677.596L491.187 704.128L475.54 678.957ZM361.928 678.957L378.935 652.424H415.672C415.672 651.744 416.353 651.744 416.353 651.744H417.713C417.713 651.064 417.713 651.064 417.713 651.064L434.721 624.532L450.369 649.703L433.361 676.916H396.624C395.943 676.916 395.263 677.596 394.583 677.596L378.255 704.128L361.928 678.957ZM588.472 678.957L606.161 652.424H642.217C642.217 651.744 643.578 651.744 643.578 651.744H644.258C644.258 651.064 644.258 651.064 644.258 651.064L661.266 624.532L677.594 649.703L659.906 676.916H623.849C623.849 676.916 623.169 676.916 622.488 676.916L621.808 677.596L604.8 704.128L588.472 678.957ZM248.315 678.957L266.003 652.424H302.06C302.06 651.744 303.42 651.744 303.42 651.744C303.42 651.064 304.101 651.064 304.101 651.064L321.109 624.532L337.436 649.703L319.748 676.916H283.691C283.691 676.916 283.011 676.916 282.331 676.916L281.65 677.596L264.643 704.128L248.315 678.957ZM135.383 678.957L152.391 652.424H189.128C189.128 652.424 189.128 652.424 189.808 652.424C190.488 652.424 190.488 651.744 190.488 651.744C190.488 651.064 191.169 651.064 191.169 651.064L208.176 624.532L223.824 649.703L206.816 676.916H170.079H169.398C168.718 676.916 168.038 677.596 168.038 677.596L151.03 704.128L135.383 678.957ZM21.7701 678.957L38.778 652.424H75.515H76.1953L76.8756 651.744H77.5559C77.5559 651.064 77.5559 651.064 77.5559 651.064L94.5638 624.532L110.211 649.703L93.2032 676.916H56.4661C55.7858 676.916 55.1055 677.596 54.4252 677.596L38.0976 704.128L21.7701 678.957Z" fill="#63CAE4"/>
</svg>
