<svg width="709" height="709" viewBox="0 0 709 709" fill="none" xmlns="http://www.w3.org/2000/svg">
<g clip-path="url(#clip0_1005_1145)">
<path d="M701.574 0.00305176L705.826 2.12905V38.2708L671.811 55.2786V20.5543C671.811 19.8456 671.811 19.8456 671.811 19.8456L671.102 18.4283H670.393L635.669 0.711704L636.378 0.00305176H622.913L624.33 0.711704L590.315 17.7196L557.008 0.711704L557.716 0.00305176H544.252L545.669 0.711704L510.236 18.4283C510.236 18.4283 509.527 18.4282 509.527 19.1369C509.527 19.1369 509.527 19.8456 509.527 20.5543V55.2786L474.803 38.2708V2.12905L479.055 0.00305176H465.59L469.842 2.12905V38.2708L435.827 55.2786V20.5543C435.827 19.8456 435.827 19.8456 435.827 19.8456C435.827 19.1369 435.118 19.1369 435.118 19.1369C435.118 18.4282 435.118 18.4283 434.409 18.4283L398.976 0.711704L400.393 0.00305176H386.929L388.346 0.711704L354.331 17.7196L320.315 0.711704L321.732 0.00305176H308.268L309.685 0.711704L274.252 18.4283C273.543 18.4283 273.543 18.4282 273.543 19.1369L272.834 19.8456C272.834 19.8456 272.834 19.8456 272.834 20.5543V55.2786L238.819 38.2708V2.12905L243.071 0.00305176H229.606L233.858 2.12905V38.2708L199.134 55.2786V20.5543C199.134 19.8456 199.134 19.8456 199.134 19.8456C199.134 19.8456 199.134 18.4283 198.425 18.4283L162.992 0.711704L164.409 0.00305176H150.945L151.653 0.711704L118.346 17.7196L84.3307 0.711704L85.748 0.00305176H72.2834L72.9921 0.711704L38.2677 18.4283C37.559 18.4283 37.559 18.4282 36.8504 19.1369C36.8504 19.1369 36.8504 19.8456 36.8504 20.5543V55.2786L2.83464 38.2708V2.12905L7.08661 0.00305176H0V42.5227L34.0157 59.5306L0 76.5385V81.4991C0.708661 81.4991 0.708661 81.4991 1.41732 81.4991L36.8504 63.7826V97.7983L0 116.223V160.869L34.0157 177.877L0 194.885V199.845C0.708661 199.845 0.708661 199.845 1.41732 199.845L36.8504 182.129V215.436L0 233.861V279.215L34.0157 296.223L0 312.523V318.192C0.708661 318.192 0.708661 318.192 1.41732 317.483L36.8504 299.767V333.782L0 352.208V396.853L34.0157 413.861L0 430.869V435.83C0.708661 435.83 0.708661 435.83 1.41732 435.83L36.8504 418.113V452.129L0 470.554V515.2L34.0157 532.207L0 549.215V554.176C0.708661 554.176 0.708661 554.176 1.41732 554.176L36.8504 536.459V569.766L0 588.192V633.546L34.0157 650.554L0 666.853V672.522C0.708661 672.522 0.708661 672.522 1.41732 671.814L36.8504 654.097V688.113L0 706.538V708.664H7.08661L39.685 692.365L72.2834 708.664H85.748L118.346 692.365L150.945 708.664H164.409L197.008 692.365L229.606 708.664H243.071L275.669 692.365L308.268 708.664H321.732L354.331 692.365L386.929 708.664H400.393L432.992 692.365L465.59 708.664H479.055L511.653 692.365L544.252 708.664H557.716L590.315 692.365L622.913 708.664H636.378L668.976 692.365L701.574 708.664H708.661V706.538L671.811 688.113V654.097L707.244 671.814C707.952 672.522 707.952 672.522 708.661 672.522V666.853L674.645 650.554L708.661 633.546V588.192L671.811 569.766V536.459L707.244 554.176C707.952 554.176 707.952 554.176 708.661 554.176V549.215L674.645 532.207L708.661 515.2V470.554L671.811 452.129V418.113L707.244 435.83C707.952 435.83 707.952 435.83 708.661 435.83V430.869L674.645 413.861L708.661 396.853V352.208L671.811 333.782V299.767L707.244 317.483C707.952 318.192 707.952 318.192 708.661 318.192V312.523L674.645 296.223L708.661 279.215V233.861L671.811 215.436V182.129L707.244 199.845C707.952 199.845 707.952 199.845 708.661 199.845V194.885L674.645 177.877L708.661 160.869V116.223L671.811 97.7983V63.7826L707.244 81.4991C707.952 81.4991 707.952 81.4991 708.661 81.4991V76.5385L674.645 59.5306L708.661 42.5227V0.00305176H701.574ZM632.834 38.2708V4.96366L666.85 21.9716V55.2786L632.834 38.2708ZM591.732 22.6802L627.165 4.96366V38.2708L590.315 56.696L553.464 38.2708V4.96366L589.606 22.6802C590.315 22.6802 591.732 22.6802 591.732 22.6802ZM514.488 21.9716L548.504 4.96366V38.2708L514.488 55.2786V21.9716ZM396.142 38.2708V4.96366L430.157 21.9716V55.2786L396.142 38.2708ZM355.748 22.6802L391.181 4.96366V38.2708L354.331 56.696L317.48 38.2708V4.96366L352.913 22.6802C353.622 22.6802 353.622 22.6802 354.331 22.6802C355.039 22.6802 355.039 22.6802 355.748 22.6802ZM278.504 21.9716L312.52 4.96366V38.2708L278.504 55.2786V21.9716ZM160.157 38.2708V4.96366L194.173 21.9716V55.2786L160.157 38.2708ZM119.055 22.6802L155.197 4.96366V38.2708L118.346 56.696L81.496 38.2708V4.96366L116.929 22.6802C116.929 22.6802 117.638 22.6802 118.346 22.6802H119.055ZM41.811 21.9716L75.8267 4.96366V38.2708L41.811 55.2786V21.9716ZM593.149 97.7983V60.9479L630 42.5227L664.015 59.5306L628.582 77.2471L627.874 77.9558C627.165 78.6644 627.165 78.6644 627.165 78.6644V114.806L593.149 97.7983ZM553.464 79.3731C553.464 79.3731 553.464 78.6644 553.464 77.9558C553.464 77.9558 553.464 77.9557 552.756 77.2471L517.323 59.5306L551.338 42.5227L588.189 60.9479V97.7983L553.464 114.806V79.3731ZM438.661 59.5306L472.677 42.5227L505.984 59.5306L472.677 76.5385L438.661 59.5306ZM357.165 97.7983V60.9479L394.016 42.5227L427.323 59.5306L392.598 77.2471C391.89 77.2471 391.89 77.9558 391.181 77.9558V79.3731V114.806L357.165 97.7983ZM317.48 79.3731C317.48 79.3731 317.48 78.6644 317.48 77.9558C317.48 77.9558 316.771 77.9557 316.771 77.2471L281.338 59.5306L314.645 42.5227L351.496 60.9479V97.7983L317.48 114.806V79.3731ZM202.677 59.5306L235.984 42.5227L270 59.5306L235.984 76.5385L202.677 59.5306ZM120.472 97.7983V60.9479L157.323 42.5227L191.338 59.5306L155.905 77.2471L155.197 77.9558V79.3731V114.806L120.472 97.7983ZM81.496 79.3731C81.496 79.3731 81.496 78.6644 80.7874 77.9558C80.7874 77.9558 80.7874 77.9557 80.7874 77.2471H80.0787L44.6456 59.5306L78.6614 42.5227L115.512 60.9479V97.7983L81.496 114.806V79.3731ZM473.386 81.4991L509.527 63.7826V97.7983L472.677 116.223L435.827 97.7983V63.7826L471.26 81.4991C471.26 81.4991 472.677 81.4991 473.386 81.4991ZM237.401 81.4991L272.834 63.7826V97.7983L235.984 116.223L199.134 97.7983V63.7826L235.275 81.4991H235.984C236.693 81.4991 237.401 81.4991 237.401 81.4991ZM632.834 80.7904L666.85 63.7826V97.7983L632.834 114.806V80.7904ZM514.488 97.7983V63.7826L548.504 80.7904V114.806L514.488 97.7983ZM396.142 80.7904L430.157 63.7826V97.7983L396.142 114.806V80.7904ZM278.504 97.7983V63.7826L312.52 80.7904V114.806L278.504 97.7983ZM160.157 80.7904L194.173 63.7826V97.7983L160.157 114.806V80.7904ZM41.811 97.7983V63.7826L75.8267 80.7904V114.806L41.811 97.7983ZM671.811 138.192C671.811 137.483 671.102 136.775 671.102 136.775L670.393 136.066L635.669 119.058L668.976 102.05L705.826 120.475V156.617L671.811 173.625V138.192ZM557.008 119.058L590.315 102.05L624.33 119.058L590.315 135.357L557.008 119.058ZM474.803 156.617V120.475L511.653 102.05L545.669 119.058L510.236 136.066C510.236 136.775 509.527 136.775 509.527 137.483V173.625L474.803 156.617ZM435.827 138.192C435.827 138.192 435.827 137.483 435.118 137.483C435.118 136.775 435.118 136.775 434.409 136.066L398.976 119.058L432.992 102.05L469.842 120.475V156.617L435.827 173.625V138.192ZM320.315 119.058L354.331 102.05L388.346 119.058L354.331 135.357L320.315 119.058ZM238.819 156.617V120.475L275.669 102.05L309.685 119.058L274.252 136.066C273.543 136.775 273.543 136.775 273.543 137.483C272.834 137.483 272.834 137.483 272.834 137.483V173.625L238.819 156.617ZM199.134 138.192C199.134 137.483 199.134 136.775 198.425 136.775L162.992 119.058L197.008 102.05L233.858 120.475V156.617L199.134 173.625V138.192ZM84.3307 119.058L118.346 102.05L151.653 119.058L118.346 135.357L84.3307 119.058ZM2.83464 156.617V120.475L39.685 102.05L72.9921 119.058L38.2677 136.066C37.559 136.775 37.559 136.775 36.8504 137.483V173.625L2.83464 156.617ZM514.488 139.609L548.504 122.601V156.617L514.488 173.625V139.609ZM278.504 139.609L312.52 122.601V156.617L278.504 173.625V139.609ZM81.496 156.617V122.601L116.929 140.318C116.929 141.027 117.638 141.027 118.346 141.027C118.346 141.027 119.055 141.027 119.055 140.318L155.197 122.601V156.617L118.346 175.042L81.496 156.617ZM41.811 139.609L75.8267 122.601V156.617L41.811 173.625V139.609ZM632.834 156.617V122.601L666.85 139.609V173.625L632.834 156.617ZM591.732 140.318L627.165 122.601V156.617L590.315 175.042L553.464 156.617V122.601L589.606 140.318C589.606 141.027 590.315 141.027 590.315 141.027C591.023 141.027 591.732 141.027 591.732 140.318ZM396.142 156.617V122.601L430.157 139.609V173.625L396.142 156.617ZM355.748 140.318L391.181 122.601V156.617L354.331 175.042L317.48 156.617V122.601L352.913 140.318C353.622 141.027 353.622 141.027 354.331 141.027C355.039 141.027 355.039 141.027 355.748 140.318ZM160.157 156.617V122.601L194.173 139.609V173.625L160.157 156.617ZM593.149 215.436V179.294L630 160.869L664.015 177.877L628.582 195.594C628.582 195.594 627.874 195.593 627.874 196.302C627.165 196.302 627.165 197.011 627.165 197.011V232.444L593.149 215.436ZM553.464 197.719C553.464 197.011 553.464 196.302 553.464 196.302C553.464 196.302 553.464 195.594 552.756 195.594L517.323 177.877L551.338 160.869L588.189 179.294V215.436L553.464 232.444V197.719ZM438.661 177.877L472.677 160.869L505.984 177.877L472.677 194.885L438.661 177.877ZM357.165 215.436V179.294L394.016 160.869L427.323 177.877L392.598 195.594C391.89 195.594 391.89 195.593 391.181 196.302C391.181 196.302 391.181 197.011 391.181 197.719V232.444L357.165 215.436ZM317.48 197.719C317.48 197.011 317.48 196.302 317.48 196.302L316.771 195.594L281.338 177.877L314.645 160.869L351.496 179.294V215.436L317.48 232.444V197.719ZM202.677 177.877L235.984 160.869L270 177.877L235.984 194.885L202.677 177.877ZM120.472 215.436V179.294L157.323 160.869L191.338 177.877L155.905 195.594C155.905 195.594 155.197 195.593 155.197 196.302C155.197 196.302 155.197 197.011 155.197 197.719V232.444L120.472 215.436ZM81.496 197.719C81.496 197.011 81.496 196.302 80.7874 196.302L80.0787 195.594L44.6456 177.877L78.6614 160.869L115.512 179.294V215.436L81.496 232.444V197.719ZM632.834 199.137L666.85 182.129V215.436L632.834 232.444V199.137ZM396.142 199.137L430.157 182.129V215.436L396.142 232.444V199.137ZM160.157 199.137L194.173 182.129V215.436L160.157 232.444V199.137ZM514.488 215.436V182.129L548.504 199.137V232.444L514.488 215.436ZM473.386 199.845L509.527 182.129V215.436L472.677 233.861L435.827 215.436V182.129L471.26 199.845C471.26 199.845 472.677 199.845 473.386 199.845ZM278.504 215.436V182.129L312.52 199.137V232.444L278.504 215.436ZM237.401 199.845L272.834 182.129V215.436L235.984 233.861L199.134 215.436V182.129L235.275 199.845H235.984C236.693 199.845 237.401 199.845 237.401 199.845ZM41.811 215.436V182.129L75.8267 199.137V232.444L41.811 215.436ZM671.811 256.538V255.121C671.102 255.121 671.102 255.121 671.102 254.412H670.393L635.669 236.696L668.976 219.688L705.826 238.113V274.964L671.811 291.971V256.538ZM557.008 236.696L590.315 219.688L624.33 236.696L590.315 253.704L557.008 236.696ZM474.803 274.964V238.113L511.653 219.688L545.669 236.696L510.236 254.412L509.527 255.121V256.538V291.971L474.803 274.964ZM435.827 256.538C435.827 256.538 435.827 255.83 435.118 255.121C435.118 255.121 435.118 254.412 434.409 254.412L432.992 253.704L398.976 236.696L432.992 219.688L469.842 238.113V274.964L435.827 291.971V256.538ZM320.315 236.696L354.331 219.688L388.346 236.696L354.331 253.704L320.315 236.696ZM238.819 274.964V238.113L275.669 219.688L309.685 236.696L274.252 254.412L273.543 255.121C272.834 255.83 272.834 255.83 272.834 255.83V291.971L238.819 274.964ZM199.134 256.538C199.134 256.538 199.134 255.83 199.134 255.121C199.134 255.121 199.134 255.121 198.425 254.412L162.992 236.696L197.008 219.688L233.858 238.113V274.964L199.134 291.971V256.538ZM84.3307 236.696L118.346 219.688L151.653 236.696L118.346 253.704L84.3307 236.696ZM2.83464 274.964V238.113L39.685 219.688L72.9921 236.696L38.2677 254.412C37.559 254.412 37.559 255.121 36.8504 255.121V256.538V291.971L2.83464 274.964ZM514.488 257.956L548.504 240.948V274.964L514.488 291.971V257.956ZM278.504 257.956L312.52 240.948V274.964L278.504 291.971V257.956ZM41.811 257.956L75.8267 240.948V274.964L41.811 291.971V257.956ZM632.834 274.964V240.948L666.141 257.956L666.85 291.971L632.834 274.964ZM590.315 258.664C591.023 258.664 591.732 258.664 591.732 258.664L627.165 240.948V274.964L590.315 293.389L553.464 274.964V240.948L590.315 258.664ZM396.142 274.964V240.948L430.157 257.956V291.971L396.142 274.964ZM355.748 258.664L391.181 240.948V274.964L354.331 293.389L317.48 274.964V240.948L352.913 258.664C353.622 258.664 353.622 258.664 354.331 258.664C355.039 258.664 355.039 258.664 355.748 258.664ZM160.157 274.964V240.948L194.173 257.956V291.971L160.157 274.964ZM119.055 258.664L155.197 240.948V274.964L118.346 293.389L81.496 274.964V240.948L116.929 258.664C116.929 258.664 117.638 258.664 118.346 258.664H119.055ZM593.149 333.782V297.641L630 279.215L664.015 296.223L628.582 313.231C627.874 313.94 627.874 313.94 627.874 314.649C627.874 315.357 627.165 315.357 627.165 315.357V350.79L593.149 333.782ZM553.464 315.357C553.464 314.649 553.464 313.94 552.756 313.94L517.323 296.223L551.338 279.215L588.189 297.641V333.782L553.464 350.79V315.357ZM438.661 296.223L472.677 279.215L505.984 296.223L472.677 312.523L438.661 296.223ZM357.165 333.782V297.641L394.016 279.215L427.323 296.223L392.598 313.231C391.89 313.94 391.89 313.94 391.181 314.649V350.79L357.165 333.782ZM317.48 315.357C316.771 314.649 316.771 313.94 316.771 313.94L316.063 313.231L281.338 296.223L314.645 279.215L351.496 297.641V333.782L317.48 350.79V315.357ZM202.677 296.223L235.984 279.215L270 296.223L235.984 312.523L202.677 296.223ZM120.472 333.782V297.641L157.323 279.215L191.338 296.223L155.905 313.231C155.905 313.94 155.197 313.94 155.197 314.649V350.79L120.472 333.782ZM81.496 315.357C81.496 315.357 81.496 314.649 80.7874 314.649L80.0787 313.94L44.6456 296.223L78.6614 279.215L115.512 297.641V333.782L81.496 350.79V315.357ZM632.834 316.775L666.85 299.767V333.782L632.834 350.79V316.775ZM473.386 317.483L509.527 299.767V333.782L472.677 352.208L435.827 333.782V299.767L471.26 317.483C471.26 318.192 471.968 318.192 472.677 318.192C472.677 318.192 473.386 318.192 473.386 317.483ZM396.142 316.775L430.157 299.767V333.782L396.142 350.79V316.775ZM237.401 317.483L272.834 299.767V333.782L235.984 352.208L199.134 333.782V299.767L235.275 317.483C235.275 318.192 235.984 318.192 235.984 318.192C236.693 318.192 237.401 318.192 237.401 317.483ZM160.157 316.775L194.173 299.767V333.782L160.157 350.79V316.775ZM514.488 333.782V299.767L548.504 316.775V350.79L514.488 333.782ZM278.504 333.782V299.767L312.52 316.775V350.79L278.504 333.782ZM41.811 333.782V299.767L75.8267 316.775V350.79L41.811 333.782ZM671.811 374.885C671.811 374.176 671.811 373.467 671.811 373.467L671.102 372.759H670.393L635.669 355.042L668.976 338.034L705.826 356.46V392.601L671.811 409.609V374.885ZM557.008 355.042L590.315 338.034L624.33 355.042L590.315 372.05L557.008 355.042ZM474.803 392.601V356.46L511.653 338.034L545.669 355.042L510.236 372.759C510.236 372.759 509.527 372.759 509.527 373.467C509.527 373.467 509.527 374.176 509.527 374.885V409.609L474.803 392.601ZM435.827 374.885C435.827 374.176 435.827 373.467 435.118 373.467C435.118 372.759 435.118 372.759 434.409 372.759L432.992 372.05L398.976 355.042L432.992 338.034L469.842 356.46V392.601L435.827 409.609V374.885ZM320.315 355.042L354.331 338.034L388.346 355.042L354.331 372.05L320.315 355.042ZM238.819 392.601V356.46L275.669 338.034L309.685 355.042L274.252 372.759C274.252 372.759 273.543 372.759 273.543 373.467C272.834 373.467 272.834 374.176 272.834 374.176V409.609L238.819 392.601ZM199.134 374.885C199.134 374.176 199.134 373.467 199.134 373.467C199.134 373.467 199.134 372.759 198.425 372.759L162.992 355.042L197.008 338.034L233.858 356.46V392.601L199.134 409.609V374.885ZM84.3307 355.042L118.346 338.034L151.653 355.042L118.346 372.05L84.3307 355.042ZM2.83464 392.601V356.46L39.685 338.034L72.9921 355.042L38.2677 372.759C37.559 372.759 37.559 372.759 36.8504 373.467C36.8504 373.467 36.8504 374.176 36.8504 374.885V409.609L2.83464 392.601ZM591.732 377.011L627.165 359.294V392.601L590.315 411.026L553.464 392.601V359.294L589.606 377.011C590.315 377.011 591.732 377.011 591.732 377.011ZM514.488 376.302L548.504 359.294V392.601L514.488 409.609V376.302ZM355.748 377.011L391.181 359.294V392.601L354.331 411.026L317.48 392.601V359.294L352.913 377.011C353.622 377.011 353.622 377.011 354.331 377.011C355.039 377.011 355.039 377.011 355.748 377.011ZM278.504 376.302L312.52 359.294V392.601L278.504 409.609V376.302ZM119.055 377.011L155.197 359.294V392.601L118.346 411.026L81.496 392.601V359.294L116.929 377.011C116.929 377.011 117.638 377.011 118.346 377.011H119.055ZM41.811 376.302L75.8267 359.294V392.601L41.811 409.609V376.302ZM632.834 392.601V359.294L666.85 376.302V409.609L632.834 392.601ZM396.142 392.601V359.294L430.157 376.302V409.609L396.142 392.601ZM160.157 392.601V359.294L194.173 376.302V409.609L160.157 392.601ZM593.149 452.129V415.278L595.984 413.861L630 396.853L664.015 413.861L628.582 431.578C627.874 431.578 627.874 432.286 627.874 432.286L627.165 432.995V469.137L593.149 452.129ZM553.464 433.704C553.464 433.704 553.464 432.995 553.464 432.286C553.464 432.286 553.464 432.286 552.756 431.578L517.323 413.861L551.338 396.853L581.102 411.735L588.189 415.278V452.129L553.464 469.137V433.704ZM438.661 413.861L472.677 396.853L505.984 413.861L472.677 430.869L438.661 413.861ZM357.165 452.129V415.278L360 413.861L394.016 396.853L427.323 413.861L392.598 431.578C391.89 431.578 391.89 432.286 391.181 432.286V433.704V469.137L357.165 452.129ZM317.48 433.704C317.48 433.704 317.48 432.995 317.48 432.286C316.771 432.286 316.771 432.286 316.771 431.578L281.338 413.861L314.645 396.853L345.118 411.735L351.496 415.278V452.129L317.48 469.137V433.704ZM202.677 413.861L235.984 396.853L270 413.861L235.984 430.869L202.677 413.861ZM120.472 452.129V415.278L123.307 413.861L157.323 396.853L191.338 413.861L155.905 431.578L155.197 432.286V433.704V469.137L120.472 452.129ZM81.496 433.704C81.496 433.704 81.496 432.995 80.7874 432.286C80.7874 432.286 80.7874 432.286 80.7874 431.578H80.0787L44.6456 413.861L78.6614 396.853L108.425 411.735L115.512 415.278V452.129L81.496 469.137V433.704ZM632.834 435.121L666.85 418.113V452.129L632.834 469.137V435.121ZM435.827 452.129V418.113L471.26 435.83C471.26 435.83 471.968 435.83 472.677 435.83L509.527 418.113V452.129L472.677 470.554L435.827 452.129ZM396.142 435.121L430.157 418.113V452.129L396.142 469.137V435.121ZM199.134 452.129V418.113L235.275 435.83H235.984C236.693 435.83 237.401 435.83 237.401 435.83L272.834 418.113V452.129L235.984 470.554L199.134 452.129ZM514.488 452.129V418.113L548.504 435.121V469.137L514.488 452.129ZM278.504 452.129V418.113L312.52 435.121V469.137L278.504 452.129ZM160.157 435.121L194.173 418.113V452.129L160.157 469.137V435.121ZM41.811 452.129V418.113L75.8267 435.121V469.137L41.811 452.129ZM671.811 492.522C671.102 491.814 671.102 491.105 671.102 491.105L670.393 490.396L635.669 473.389L668.976 456.381L705.826 474.806V510.948L671.811 527.956V492.522ZM557.008 473.389L590.315 456.381L624.33 473.389L590.315 489.688L557.008 473.389ZM474.803 510.948V474.806L511.653 456.381L545.669 473.389L510.236 490.396C510.236 491.105 509.527 491.105 509.527 491.814V527.956L474.803 510.948ZM398.976 473.389L432.992 456.381L469.842 474.806V510.948L435.827 527.956V492.522C435.827 492.522 435.827 491.814 435.118 491.814C435.118 491.105 435.118 491.105 434.409 490.396L430.866 488.979L398.976 473.389ZM320.315 473.389L354.331 456.381L388.346 473.389L354.331 489.688L320.315 473.389ZM238.819 510.948V474.806L275.669 456.381L309.685 473.389L274.252 490.396C274.252 491.105 273.543 491.105 273.543 491.814H272.834V527.956L238.819 510.948ZM199.134 492.522C199.134 491.814 199.134 491.105 198.425 491.105V490.396L162.992 473.389L197.008 456.381L233.858 474.806V510.948L199.134 527.956V492.522ZM84.3307 473.389L118.346 456.381L151.653 473.389L118.346 489.688L84.3307 473.389ZM2.83464 510.948V474.806L39.685 456.381L72.9921 473.389L38.2677 490.396C37.559 491.105 37.559 491.105 36.8504 491.814V527.956L2.83464 510.948ZM553.464 510.948V476.932L589.606 494.648C589.606 495.357 590.315 495.357 590.315 495.357C591.023 495.357 591.732 495.357 591.732 494.648L627.165 476.932V510.948L590.315 529.373L553.464 510.948ZM514.488 493.94L548.504 476.932V510.948L514.488 527.956V493.94ZM317.48 510.948V476.932L352.913 494.648C353.622 495.357 353.622 495.357 354.331 495.357C355.039 495.357 355.039 495.357 355.748 494.648L391.181 476.932V510.948L354.331 529.373L317.48 510.948ZM278.504 493.94L312.52 476.932V510.948L278.504 527.956V493.94ZM81.496 510.948V476.932L116.929 494.648C116.929 495.357 117.638 495.357 118.346 495.357C118.346 495.357 119.055 495.357 119.055 494.648L155.197 476.932V510.948L118.346 529.373L81.496 510.948ZM41.811 493.94L75.8267 476.932V510.948L41.811 527.956V493.94ZM632.834 510.948V476.932L666.85 493.94V527.956L632.834 510.948ZM396.142 510.948V476.932L430.157 493.94V527.956L396.142 510.948ZM160.157 510.948V476.932L194.173 493.94V527.956L160.157 510.948ZM593.149 569.766V533.625L630 515.2L664.015 532.207L628.582 549.924C628.582 549.924 627.874 549.924 627.874 550.633C627.165 550.633 627.165 551.341 627.165 551.341C627.165 551.341 627.165 551.341 627.165 552.05V586.774L593.149 569.766ZM553.464 552.05C553.464 551.341 553.464 551.341 553.464 551.341C553.464 551.341 553.464 549.924 552.756 549.924L517.323 532.207L551.338 515.2L588.189 533.625V569.766L553.464 586.774V552.05ZM438.661 532.207L472.677 515.2L505.984 532.207L472.677 549.215L438.661 532.207ZM357.165 569.766V533.625L394.016 515.2L427.323 532.207L392.598 549.924C391.89 549.924 391.89 549.924 391.181 550.633C391.181 550.633 391.181 551.341 391.181 552.05V586.774L357.165 569.766ZM317.48 552.05C317.48 551.341 317.48 551.341 317.48 551.341L316.771 549.924L281.338 532.207L314.645 515.2L351.496 533.625V569.766L317.48 586.774V552.05ZM202.677 532.207L235.984 515.2L270 532.207L235.984 549.215L202.677 532.207ZM120.472 569.766V533.625L157.323 515.2L191.338 532.207L155.905 549.924C155.905 549.924 155.197 549.924 155.197 550.633C155.197 550.633 155.197 551.341 155.197 552.05V586.774L120.472 569.766ZM81.496 552.05C81.496 551.341 81.496 551.341 81.496 551.341C81.496 550.633 81.496 550.633 80.7874 550.633V549.924H80.0787L44.6456 532.207L78.6614 515.2L115.512 533.625V569.766L81.496 586.774V552.05ZM632.834 553.467L666.85 536.459V569.766L632.834 586.774V553.467ZM473.386 554.176L509.527 536.459V569.766L472.677 588.192L435.827 569.766V536.459L471.26 554.176C471.26 554.176 472.677 554.176 473.386 554.176ZM396.142 553.467L430.157 536.459V569.766L396.142 586.774V553.467ZM237.401 554.176L272.834 536.459V569.766L235.984 588.192L199.134 569.766V536.459L235.275 554.176H235.984C236.693 554.176 237.401 554.176 237.401 554.176ZM514.488 569.766V536.459L548.504 553.467V586.774L514.488 569.766ZM278.504 569.766V536.459L312.52 553.467V586.774L278.504 569.766ZM160.157 553.467L194.173 536.459V569.766L160.157 586.774V553.467ZM41.811 569.766V536.459L75.8267 553.467V586.774L41.811 569.766ZM671.811 610.869C671.811 610.869 671.811 610.16 671.811 609.452C671.811 609.452 671.102 609.452 671.102 608.743H670.393L635.669 591.026L668.976 574.018L705.826 592.444V629.294L671.811 646.302V610.869ZM557.008 591.026L590.315 574.018L624.33 591.026L590.315 608.034L557.008 591.026ZM474.803 629.294V592.444L511.653 574.018L545.669 591.026L510.236 608.743L509.527 609.452V610.869V646.302L474.803 629.294ZM398.976 591.026L432.992 574.018L469.842 592.444V629.294L435.827 646.302V610.869C435.827 610.869 435.827 610.16 435.118 609.452C435.118 609.452 435.118 608.743 434.409 608.743L430.866 607.326L398.976 591.026ZM320.315 591.026L354.331 574.018L388.346 591.026L354.331 608.034L320.315 591.026ZM238.819 629.294V592.444L275.669 574.018L309.685 591.026L274.252 608.743L273.543 609.452C272.834 610.16 272.834 610.16 272.834 610.16V646.302L238.819 629.294ZM199.134 610.869C199.134 610.869 199.134 610.16 199.134 609.452C199.134 609.452 199.134 609.452 198.425 608.743L162.992 591.026L197.008 574.018L233.858 592.444V629.294L199.134 646.302V610.869ZM84.3307 591.026L118.346 574.018L151.653 591.026L118.346 608.034L84.3307 591.026ZM2.83464 629.294V592.444L39.685 574.018L72.9921 591.026L38.2677 608.743C37.559 608.743 37.559 609.452 36.8504 609.452V610.869V646.302L2.83464 629.294ZM590.315 612.995C591.023 612.995 591.732 612.995 591.732 612.995L627.165 595.278V629.294L590.315 647.719L553.464 629.294V595.278L590.315 612.995ZM514.488 612.286L548.504 595.278V629.294L514.488 646.302V612.286ZM355.748 612.995L391.181 595.278V629.294L354.331 647.719L317.48 629.294V595.278L352.913 612.995C353.622 612.995 353.622 612.995 354.331 612.995C355.039 612.995 355.039 612.995 355.748 612.995ZM278.504 612.286L312.52 595.278V629.294L278.504 646.302V612.286ZM119.055 612.995L155.197 595.278V629.294L118.346 647.719L81.496 629.294V595.278L116.929 612.995C116.929 612.995 117.638 612.995 118.346 612.995H119.055ZM41.811 612.286L75.8267 595.278V629.294L41.811 646.302V612.286ZM632.834 629.294V595.278L666.85 612.286V646.302L632.834 629.294ZM396.142 629.294V595.278L430.157 612.286V646.302L396.142 629.294ZM160.157 629.294V595.278L194.173 612.286V646.302L160.157 629.294ZM593.149 688.113V651.971L630 633.546L664.015 650.554L628.582 667.562C628.582 668.27 627.874 668.27 627.874 668.979C627.874 669.688 627.165 669.688 627.165 669.688V705.121L593.149 688.113ZM553.464 669.688C553.464 668.979 553.464 668.27 552.756 668.27L517.323 650.554L551.338 633.546L588.189 651.971V688.113L553.464 705.121V669.688ZM438.661 650.554L472.677 633.546L505.984 650.554L472.677 666.853L438.661 650.554ZM357.165 688.113V651.971L394.016 633.546L427.323 650.554L392.598 667.562C391.89 668.27 391.89 668.27 391.181 668.979V705.121L357.165 688.113ZM317.48 669.688C317.48 668.979 316.771 668.27 316.771 668.27L316.063 667.562L281.338 650.554L314.645 633.546L351.496 651.971V688.113L317.48 705.121V669.688ZM202.677 650.554L235.984 633.546L270 650.554L235.984 666.853L202.677 650.554ZM120.472 688.113V651.971L157.323 633.546L191.338 650.554L155.905 667.562C155.905 668.27 155.197 668.27 155.197 668.979V705.121L120.472 688.113ZM81.496 669.688C81.496 669.688 81.496 668.979 80.7874 668.979C80.7874 668.27 80.7874 668.27 80.7874 668.27C80.0787 668.27 80.0787 667.562 80.0787 667.562L44.6456 650.554L78.6614 633.546L115.512 651.971V688.113L81.496 705.121V669.688ZM632.834 671.105L666.85 654.097V688.113L632.834 705.121V671.105ZM472.677 672.522C472.677 672.522 473.386 672.522 473.386 671.814L509.527 654.097V688.113L472.677 706.538L435.827 688.113V654.097L471.26 671.814C471.26 672.522 471.968 672.522 472.677 672.522ZM396.142 671.105L430.157 654.097V688.113L396.142 705.121V671.105ZM237.401 671.814L272.834 654.097V688.113L235.984 706.538L199.134 688.113V654.097L235.275 671.814C235.275 672.522 235.984 672.522 235.984 672.522C236.693 672.522 237.401 672.522 237.401 671.814ZM160.157 671.105L194.173 654.097V688.113L160.157 705.121V671.105ZM514.488 688.113V654.097L548.504 671.105V705.121L514.488 688.113ZM278.504 688.113V654.097L312.52 671.105V705.121L278.504 688.113ZM41.811 688.113V654.097L75.8267 671.105V705.121L41.811 688.113Z" fill="url(#paint0_linear_1005_1145)"/>
</g>
<defs>
<linearGradient id="paint0_linear_1005_1145" x1="0" y1="354.334" x2="708.661" y2="354.334" gradientUnits="userSpaceOnUse">
<stop offset="1" stop-color="#63CAE4"/>
</linearGradient>
<clipPath id="clip0_1005_1145">
<rect width="709" height="709" fill="white"/>
</clipPath>
</defs>
</svg>
