<svg width="709" height="709" viewBox="0 0 709 709" fill="none" xmlns="http://www.w3.org/2000/svg">
<path d="M0 0.00305176V4.25505L9.21259 18.4283L0 32.6015V42.5227L17.0079 68.0345H0V72.2865H45.3543L54.5669 86.4597H0V90.7117H29.7638L20.5512 105.594H0V109.845H17.0079L0 136.066V144.57L35.4331 90.7117H54.5669L0 172.916V181.42L9.21259 195.594L0 209.767V219.688L17.0079 245.2H0V249.452H45.3543L54.5669 263.625H0V267.877H29.7638L20.5512 282.759H0V287.011H17.0079L0 313.231V321.735L35.4331 267.877H54.5669L0 350.082V358.586L9.21259 372.759L0 386.932V396.853L17.0079 422.365H0V426.617H45.3543L54.5669 440.79H0V445.042H29.7638L20.5512 459.924H0V464.176H17.0079L0 490.396V498.9L35.4331 445.042H54.5669L0 527.247V535.751L9.21259 549.924L0 564.097V574.018L17.0079 599.53H0V603.782H45.3543L54.5669 617.955H0V622.207H29.7638L20.5512 637.089H0V641.341H17.0079L0 667.562V676.066L35.4331 622.207H54.5669L0 704.412V708.664H708.661V704.412L699.448 690.239L708.661 676.066V667.562L691.653 641.341H708.661V637.089H688.11L678.897 622.207H708.661V617.955H654.094L663.307 603.782H708.661V599.53H690.945L708.661 573.31V574.018V564.097L685.275 599.53H666.141L708.661 535.751V527.247L699.448 513.074L708.661 498.9V490.396L691.653 464.176H708.661V459.924H688.11L678.897 445.042H708.661V440.79H654.094L663.307 426.617H708.661V422.365H690.945L708.661 396.145V386.932L685.275 422.365H666.141L708.661 358.586V350.082L699.448 335.908L708.661 321.735V313.231L691.653 287.011H708.661V282.759H688.11L678.897 267.877H708.661V263.625H654.094L663.307 249.452H708.661V245.2H690.945L708.661 218.979V209.767L685.275 245.2H666.141L708.661 181.42V172.916L699.448 158.743L708.661 144.57V136.066L691.653 109.845H708.661V105.594H688.11L678.897 90.7117H708.661V86.4597H654.094L663.307 72.2865H708.661V68.0345H690.945L708.661 41.8141V32.6015L685.275 68.0345H666.141L708.661 4.25505V0.00305176H0ZM522.283 70.1605L566.929 2.12905H586.063L531.496 84.3337L522.283 70.1605ZM501.732 2.12905H561.26L552.047 17.0109H510.945L501.732 2.12905ZM476.929 2.12905H496.063L528.661 51.7353L519.449 65.9085L476.929 2.12905ZM167.953 70.1605L212.598 2.12905H231.732L177.165 84.3337L167.953 70.1605ZM147.401 2.12905H206.929L197.716 17.0109H156.614L147.401 2.12905ZM122.598 2.12905H141.732L174.331 51.7353L165.118 65.9085L122.598 2.12905ZM594.567 2.12905H704.409L695.196 16.3023H604.488L594.567 2.12905ZM358.582 2.12905H468.425L458.504 16.3023H367.795L358.582 2.12905ZM240.236 2.12905H350.079L340.866 16.3023H250.157L240.236 2.12905ZM4.25197 2.12905H114.094L104.173 16.3023H13.4646L4.25197 2.12905ZM581.102 18.4283L590.315 4.25505L632.834 68.0345H613.7L581.102 18.4283ZM472.677 4.25505L481.889 18.4283L436.535 86.4597H417.401L472.677 4.25505ZM354.331 4.25505L363.543 18.4283L330.945 68.0345H311.811L354.331 4.25505ZM226.772 18.4283L235.984 4.25505L278.504 68.0345H259.37L226.772 18.4283ZM118.346 4.25505L127.559 18.4283L82.2047 86.4597H63.0708L118.346 4.25505ZM639.921 70.1605L673.228 20.5543H691.653L649.842 84.3337L639.921 70.1605ZM632.834 20.5543H667.559L649.842 46.7747L632.834 20.5543ZM607.322 20.5543H627.165L647.007 51.0267L637.086 65.9085L607.322 20.5543ZM415.984 51.0267L435.827 20.5543H455.669L425.905 65.9085L415.984 51.0267ZM395.433 20.5543H430.157L413.149 46.7747L395.433 20.5543ZM371.338 20.5543H389.764L423.071 70.1605L413.149 84.3337L371.338 20.5543ZM285.59 70.1605L318.897 20.5543H337.323L295.512 84.3337L285.59 70.1605ZM278.504 20.5543H313.228L295.512 46.7747L278.504 20.5543ZM252.992 20.5543H272.834L292.677 51.0267L282.756 65.9085L252.992 20.5543ZM61.6535 51.0267L81.496 20.5543H101.339L71.5748 65.9085L61.6535 51.0267ZM41.1023 20.5543H75.8267L58.8189 46.7747L41.1023 20.5543ZM17.0079 20.5543H35.4331L68.7401 70.1605L58.8189 84.3337L17.0079 20.5543ZM514.488 21.2629H548.504L531.496 47.4834L514.488 21.2629ZM160.157 21.2629H194.173L177.165 47.4834L160.157 21.2629ZM578.267 22.6802L588.189 37.5621L567.637 68.0345H548.504L578.267 22.6802ZM475.512 36.8534L484.724 22.6802L527.244 86.4597H508.11L475.512 36.8534ZM357.165 37.5621L366.378 22.6802L396.85 68.0345H377.008L357.165 37.5621ZM223.937 22.6802L233.858 37.5621L213.307 68.0345H194.173L223.937 22.6802ZM121.181 36.8534L130.394 22.6802L172.913 86.4597H153.779L121.181 36.8534ZM2.83464 37.5621L12.0472 22.6802L42.5197 68.0345H22.6772L2.83464 37.5621ZM472.677 41.1054L489.685 67.3259H454.96L472.677 41.1054ZM118.346 41.1054L135.354 67.3259H100.63L118.346 41.1054ZM591.023 41.8141L608.031 68.0345H573.307L591.023 41.8141ZM236.693 41.8141L253.701 68.0345H218.976L236.693 41.8141ZM354.331 41.8141L371.338 68.0345H336.614L354.331 41.8141ZM452.126 71.5778H492.519L502.441 86.4597H442.204L452.126 71.5778ZM97.7952 71.5778H138.189L148.11 86.4597H87.874L97.7952 71.5778ZM544.96 72.2865H635.669L645.59 86.4597H535.748L544.96 72.2865ZM190.63 72.2865H281.338L291.26 86.4597H181.417L190.63 72.2865ZM308.976 72.2865H399.685L408.897 86.4597H299.764L308.976 72.2865ZM654.094 90.7117H673.228L705.826 140.318L696.614 154.491L654.094 90.7117ZM535.748 90.7117H645.59L635.669 104.885H544.96L535.748 90.7117ZM417.401 90.7117H527.244L518.031 104.885H427.323L417.401 90.7117ZM345.118 158.743L389.764 90.7117H408.897L354.331 172.916L345.118 158.743ZM324.567 90.7117H384.094L374.882 105.594H333.779L324.567 90.7117ZM299.764 90.7117H318.897L351.496 140.318L342.283 154.491L299.764 90.7117ZM181.417 90.7117H291.26L281.338 104.885H190.63L181.417 90.7117ZM63.0708 90.7117H172.913L163.701 104.885H72.9921L63.0708 90.7117ZM649.842 92.8377L659.055 107.011L613.7 175.042H594.567L649.842 92.8377ZM531.496 92.8377L540.708 107.011L508.11 156.617H488.976L531.496 92.8377ZM403.937 107.011L413.149 92.8377L455.669 156.617H436.535L403.937 107.011ZM295.512 92.8377L304.724 107.011L259.37 175.042H240.236L295.512 92.8377ZM177.165 92.8377L186.378 107.011L153.779 156.617H134.646L177.165 92.8377ZM49.6063 107.011L58.8189 92.8377L101.339 156.617H82.2047L49.6063 107.011ZM593.149 139.609L612.992 109.137H632.834L603.071 154.491L593.149 139.609ZM572.598 109.137H607.322L590.315 135.357L572.598 109.137ZM590.315 172.916L548.504 109.137H566.929L600.236 158.743L590.315 172.916ZM462.756 158.743L496.063 109.137H514.488L472.677 172.916L462.756 158.743ZM455.669 109.137H490.393L472.677 135.357L455.669 109.137ZM430.157 109.137H450L469.842 139.609L459.921 154.491L430.157 109.137ZM238.819 139.609L258.661 109.137H278.504L248.74 154.491L238.819 139.609ZM218.268 109.137H252.992L235.984 135.357L218.268 109.137ZM194.173 109.137H212.598L245.905 158.743L235.984 172.916L194.173 109.137ZM108.425 158.743L141.732 109.137H160.157L118.346 172.916L108.425 158.743ZM101.339 109.137H136.063L118.346 135.357L101.339 109.137ZM75.8267 109.137H95.6692L115.512 139.609L105.59 154.491L75.8267 109.137ZM337.323 109.845H371.338L354.331 136.066L337.323 109.845ZM652.677 125.436L661.889 111.263L704.409 175.042H685.275L652.677 125.436ZM534.33 126.145L543.543 111.263L574.015 156.617H554.173L534.33 126.145ZM401.102 111.263L411.023 126.145L390.472 156.617H371.338L401.102 111.263ZM298.346 125.436L307.559 111.263L350.079 175.042H330.945L298.346 125.436ZM180 126.145L189.212 111.263L219.685 156.617H199.842L180 126.145ZM46.7716 111.263L56.6929 126.145L36.1417 156.617H17.0079L46.7716 111.263ZM649.842 129.688L666.85 155.908H632.126L649.842 129.688ZM295.512 129.688L312.52 155.908H277.795L295.512 129.688ZM531.496 130.397L548.504 156.617H513.779L531.496 130.397ZM413.858 130.397L430.866 156.617H396.142L413.858 130.397ZM177.165 130.397L194.173 156.617H159.449L177.165 130.397ZM59.5275 130.397L76.5354 156.617H41.811L59.5275 130.397ZM629.291 160.16H669.685L679.606 175.042H619.37L629.291 160.16ZM274.96 160.16H315.354L325.275 175.042H265.039L274.96 160.16ZM486.141 160.869H576.85L586.063 175.042H476.929L486.141 160.869ZM367.795 160.869H458.504L468.425 175.042H358.582L367.795 160.869ZM131.811 160.869H222.52L231.732 175.042H122.598L131.811 160.869ZM13.4646 160.869H104.173L114.094 175.042H4.25197L13.4646 160.869ZM594.567 179.294H704.409L695.196 193.468H604.488L594.567 179.294ZM522.283 247.326L566.929 179.294H586.063L531.496 261.499L522.283 247.326ZM501.732 179.294H561.26L552.047 194.176H510.945L501.732 179.294ZM519.449 243.074L476.929 179.294H496.063L528.661 228.901L519.449 243.074ZM358.582 179.294H468.425L458.504 193.468H367.795L358.582 179.294ZM240.236 179.294H350.079L340.866 193.468H250.157L240.236 179.294ZM167.953 247.326L212.598 179.294H231.732L177.165 261.499L167.953 247.326ZM147.401 179.294H206.929L197.716 194.176H156.614L147.401 179.294ZM122.598 179.294H141.732L174.331 228.901L165.118 243.074L122.598 179.294ZM4.25197 179.294H114.094L104.173 193.468H13.4646L4.25197 179.294ZM581.102 195.594L590.315 181.42L632.834 245.2H613.7L581.102 195.594ZM472.677 181.42L481.889 195.594L436.535 263.625H417.401L472.677 181.42ZM354.331 181.42L363.543 195.594L330.945 245.2H311.811L354.331 181.42ZM226.772 195.594L235.984 181.42L278.504 245.2H259.37L226.772 195.594ZM118.346 181.42L127.559 195.594L82.2047 263.625H63.0708L118.346 181.42ZM639.921 247.326L673.228 197.719H691.653L649.842 261.499L639.921 247.326ZM632.834 197.719H667.559L649.842 223.94L632.834 197.719ZM607.322 197.719H627.165L647.007 228.192L637.086 243.074L607.322 197.719ZM415.984 228.192L435.827 197.719H455.669L425.905 243.074L415.984 228.192ZM395.433 197.719H430.157L413.149 223.94L395.433 197.719ZM371.338 197.719H389.764L423.071 247.326L413.149 261.499L371.338 197.719ZM285.59 247.326L318.897 197.719H337.323L295.512 261.499L285.59 247.326ZM278.504 197.719H313.228L295.512 223.94L278.504 197.719ZM252.992 197.719H272.834L292.677 228.192L282.756 243.074L252.992 197.719ZM61.6535 228.192L81.496 197.719H101.339L71.5748 243.074L61.6535 228.192ZM41.1023 197.719H75.8267L58.8189 223.94L41.1023 197.719ZM17.0079 197.719H35.4331L68.7401 247.326L58.8189 261.499L17.0079 197.719ZM514.488 198.428H548.504L531.496 224.649L514.488 198.428ZM160.157 198.428H194.173L177.165 224.649L160.157 198.428ZM578.267 199.845L588.189 214.727L567.637 245.2H548.504L578.267 199.845ZM475.512 214.019L484.724 199.845L527.244 263.625H508.11L475.512 214.019ZM357.165 214.727L366.378 199.845L396.85 245.2H377.008L357.165 214.727ZM223.937 199.845L233.858 214.727L213.307 245.2H194.173L223.937 199.845ZM121.181 214.019L130.394 199.845L172.913 263.625H153.779L121.181 214.019ZM2.83464 214.727L12.0472 199.845L42.5197 245.2H22.6772L2.83464 214.727ZM472.677 218.271L489.685 244.491H454.96L472.677 218.271ZM118.346 218.271L135.354 244.491H100.63L118.346 218.271ZM591.023 218.979L608.031 245.2H573.307L591.023 218.979ZM354.331 218.979L371.338 245.2H336.614L354.331 218.979ZM236.693 218.979L253.701 245.2H218.976L236.693 218.979ZM452.126 248.743H492.519L502.441 263.625H442.204L452.126 248.743ZM97.7952 248.743H138.189L148.11 263.625H87.874L97.7952 248.743ZM544.96 249.452H635.669L645.59 263.625H535.748L544.96 249.452ZM308.976 249.452H399.685L408.897 263.625H299.764L308.976 249.452ZM190.63 249.452H281.338L291.26 263.625H181.417L190.63 249.452ZM654.094 267.877H673.228L705.826 317.483L696.614 331.656L654.094 267.877ZM535.748 267.877H645.59L635.669 282.05H544.96L535.748 267.877ZM417.401 267.877H527.244L518.031 282.05H427.323L417.401 267.877ZM345.118 335.908L389.764 267.877H408.897L354.331 350.082L345.118 335.908ZM324.567 267.877H384.094L374.882 282.759H333.779L324.567 267.877ZM299.764 267.877H318.897L351.496 317.483L342.283 331.656L299.764 267.877ZM181.417 267.877H291.26L281.338 282.05H190.63L181.417 267.877ZM63.0708 267.877H172.913L163.701 282.05H72.9921L63.0708 267.877ZM649.842 270.003L659.055 284.176L613.7 352.208H594.567L649.842 270.003ZM295.512 270.003L304.724 284.176L259.37 352.208H240.236L295.512 270.003ZM177.165 270.003L186.378 284.176L153.779 333.782H134.646L177.165 270.003ZM531.496 270.003L540.708 284.176L508.11 333.782H488.976L531.496 270.003ZM403.937 284.176L413.149 270.003L455.669 333.782H436.535L403.937 284.176ZM49.6063 284.176L58.8189 270.003L101.339 333.782H82.2047L49.6063 284.176ZM593.149 316.775L612.992 286.302H632.834L603.071 331.656L593.149 316.775ZM572.598 286.302H607.322L590.315 312.523L572.598 286.302ZM590.315 350.082L548.504 286.302H566.929L600.236 335.908L590.315 350.082ZM462.756 335.908L496.063 286.302H514.488L472.677 350.082L462.756 335.908ZM455.669 286.302H490.393L472.677 312.523L455.669 286.302ZM430.157 286.302H450L469.842 316.775L459.921 331.656L430.157 286.302ZM238.819 316.775L258.661 286.302H278.504L248.74 331.656L238.819 316.775ZM218.268 286.302H252.992L235.984 312.523L218.268 286.302ZM194.173 286.302H212.598L245.905 335.908L235.984 350.082L194.173 286.302ZM108.425 335.908L141.732 286.302H160.157L118.346 350.082L108.425 335.908ZM101.339 286.302H136.063L118.346 312.523L101.339 286.302ZM75.8267 286.302H95.6692L115.512 316.775L105.59 331.656L75.8267 286.302ZM337.323 287.011H371.338L354.331 313.231L337.323 287.011ZM652.677 302.601L661.889 288.428L704.409 352.208H685.275L652.677 302.601ZM534.33 303.31L543.543 288.428L574.015 333.782H554.173L534.33 303.31ZM401.102 288.428L411.023 303.31L390.472 333.782H371.338L401.102 288.428ZM298.346 302.601L307.559 288.428L350.079 352.208H330.945L298.346 302.601ZM180 303.31L189.212 288.428L219.685 333.782H199.842L180 303.31ZM46.7716 288.428L56.6929 303.31L36.1417 333.782H17.0079L46.7716 288.428ZM649.842 306.853L666.85 333.074H632.126L649.842 306.853ZM295.512 306.853L312.52 333.074H277.795L295.512 306.853ZM531.496 307.562L548.504 333.782H513.779L531.496 307.562ZM413.858 307.562L430.866 333.782H396.142L413.858 307.562ZM177.165 307.562L194.173 333.782H159.449L177.165 307.562ZM59.5275 307.562L76.5354 333.782H41.811L59.5275 307.562ZM629.291 337.326H669.685L679.606 352.208H619.37L629.291 337.326ZM274.96 337.326H315.354L325.275 352.208H265.039L274.96 337.326ZM486.141 338.034H576.85L586.063 352.208H476.929L486.141 338.034ZM367.795 338.034H458.504L468.425 352.208H358.582L367.795 338.034ZM131.811 338.034H222.52L231.732 352.208H122.598L131.811 338.034ZM13.4646 338.034H104.173L114.094 352.208H4.25197L13.4646 338.034ZM522.283 424.491L566.929 356.46H586.063L531.496 438.664L522.283 424.491ZM501.732 356.46H561.26L552.047 371.341H510.945L501.732 356.46ZM476.929 356.46H496.063L528.661 406.066L519.449 420.239L476.929 356.46ZM167.953 424.491L212.598 356.46H231.732L177.165 438.664L167.953 424.491ZM147.401 356.46H206.929L197.716 371.341H156.614L147.401 356.46ZM122.598 356.46H141.732L174.331 406.066L165.118 420.239L122.598 356.46ZM594.567 356.46H704.409L695.196 370.633H604.488L594.567 356.46ZM358.582 356.46H468.425L458.504 370.633H367.795L358.582 356.46ZM240.236 356.46H350.079L340.866 370.633H250.157L240.236 356.46ZM4.25197 356.46H114.094L104.173 370.633H13.4646L4.25197 356.46ZM581.102 372.759L590.315 358.586L632.834 422.365H613.7L581.102 372.759ZM472.677 358.586L481.889 372.759L436.535 440.79H417.401L472.677 358.586ZM354.331 358.586L363.543 372.759L330.945 422.365H311.811L354.331 358.586ZM226.772 372.759L235.984 358.586L278.504 422.365H259.37L226.772 372.759ZM118.346 358.586L127.559 372.759L82.2047 440.79H63.0708L118.346 358.586ZM639.921 424.491L673.228 374.885H691.653L649.842 438.664L639.921 424.491ZM632.834 374.885H667.559L649.842 401.105L632.834 374.885ZM607.322 374.885H627.165L647.007 405.357L637.086 420.239L607.322 374.885ZM415.984 405.357L435.827 374.885H455.669L425.905 420.239L415.984 405.357ZM395.433 374.885H430.157L413.149 401.105L395.433 374.885ZM371.338 374.885H389.764L423.071 424.491L413.149 438.664L371.338 374.885ZM285.59 424.491L318.897 374.885H337.323L295.512 438.664L285.59 424.491ZM278.504 374.885H313.228L295.512 401.105L278.504 374.885ZM252.992 374.885H272.834L292.677 405.357L282.756 420.239L252.992 374.885ZM61.6535 405.357L81.496 374.885H101.339L71.5748 420.239L61.6535 405.357ZM41.1023 374.885H75.8267L58.8189 401.105L41.1023 374.885ZM17.0079 374.885H35.4331L68.7401 424.491L58.8189 438.664L17.0079 374.885ZM514.488 375.593H548.504L531.496 401.814L514.488 375.593ZM160.157 375.593H194.173L177.165 401.814L160.157 375.593ZM578.267 377.011L588.189 391.893L567.637 422.365H548.504L578.267 377.011ZM357.165 391.893L366.378 377.011L396.85 422.365H377.008L357.165 391.893ZM223.937 377.011L233.858 391.893L213.307 422.365H194.173L223.937 377.011ZM475.512 391.184L484.724 377.011L527.244 440.79H508.11L475.512 391.184ZM121.181 391.184L130.394 377.011L172.913 440.79H153.779L121.181 391.184ZM2.83464 391.893L12.0472 377.011L42.5197 422.365H22.6772L2.83464 391.893ZM472.677 395.436L489.685 421.656H454.96L472.677 395.436ZM118.346 395.436L135.354 421.656H100.63L118.346 395.436ZM591.023 396.145L608.031 422.365H573.307L591.023 396.145ZM354.331 396.145L371.338 422.365H336.614L354.331 396.145ZM236.693 396.145L253.701 422.365H218.976L236.693 396.145ZM452.126 425.908H492.519L502.441 440.79H442.204L452.126 425.908ZM97.7952 425.908H138.189L148.11 440.79H87.874L97.7952 425.908ZM544.96 426.617H635.669L645.59 440.79H535.748L544.96 426.617ZM308.976 426.617H399.685L408.897 440.79H299.764L308.976 426.617ZM190.63 426.617H281.338L291.26 440.79H181.417L190.63 426.617ZM654.094 445.042H673.228L705.826 494.648L696.614 508.822L654.094 445.042ZM535.748 445.042H645.59L635.669 459.215H544.96L535.748 445.042ZM417.401 445.042H527.244L518.031 459.215H427.323L417.401 445.042ZM345.118 513.074L389.764 445.042H408.897L354.331 527.247L345.118 513.074ZM324.567 445.042H384.094L374.882 459.924H333.779L324.567 445.042ZM299.764 445.042H318.897L351.496 494.648L342.283 508.822L299.764 445.042ZM181.417 445.042H291.26L281.338 459.215H190.63L181.417 445.042ZM63.0708 445.042H172.913L163.701 459.215H72.9921L63.0708 445.042ZM649.842 447.168L659.055 461.341L613.7 529.373H594.567L649.842 447.168ZM531.496 447.168L540.708 461.341L508.11 510.948H488.976L531.496 447.168ZM403.937 461.341L413.149 447.168L455.669 510.948H436.535L403.937 461.341ZM295.512 447.168L304.724 461.341L259.37 529.373H240.236L295.512 447.168ZM177.165 447.168L186.378 461.341L153.779 510.948H134.646L177.165 447.168ZM49.6063 461.341L58.8189 447.168L101.339 510.948H82.2047L49.6063 461.341ZM593.149 493.94L612.992 463.467H632.834L603.071 508.822L593.149 493.94ZM572.598 463.467H607.322L590.315 489.688L572.598 463.467ZM590.315 527.247L548.504 463.467H566.929L600.236 513.074L590.315 527.247ZM462.756 513.074L496.063 463.467H514.488L472.677 527.247L462.756 513.074ZM455.669 463.467H490.393L472.677 489.688L455.669 463.467ZM430.157 463.467H450L469.842 493.94L459.921 508.822L430.157 463.467ZM238.819 493.94L258.661 463.467H278.504L248.74 508.822L238.819 493.94ZM218.268 463.467H252.992L235.984 489.688L218.268 463.467ZM194.173 463.467H212.598L245.905 513.074L235.984 527.247L194.173 463.467ZM108.425 513.074L141.732 463.467H160.157L118.346 527.247L108.425 513.074ZM101.339 463.467H136.063L118.346 489.688L101.339 463.467ZM75.8267 463.467H95.6692L115.512 493.94L105.59 508.822L75.8267 463.467ZM337.323 464.176H371.338L354.331 490.396L337.323 464.176ZM652.677 479.767L661.889 465.593L704.409 529.373H685.275L652.677 479.767ZM534.33 480.475L543.543 465.593L574.015 510.948H554.173L534.33 480.475ZM401.102 465.593L411.023 480.475L390.472 510.948H371.338L401.102 465.593ZM298.346 479.767L307.559 465.593L350.079 529.373H330.945L298.346 479.767ZM180 480.475L189.212 465.593L219.685 510.948H199.842L180 480.475ZM46.7716 465.593L56.6929 480.475L36.1417 510.948H17.0079L46.7716 465.593ZM649.842 484.019L666.85 510.239H632.126L649.842 484.019ZM295.512 484.019L312.52 510.239H277.795L295.512 484.019ZM531.496 484.727L548.504 510.948H513.779L531.496 484.727ZM413.858 484.727L430.866 510.948H396.142L413.858 484.727ZM177.165 484.727L194.173 510.948H159.449L177.165 484.727ZM59.5275 484.727L76.5354 510.948H41.811L59.5275 484.727ZM629.291 514.491H669.685L679.606 529.373H619.37L629.291 514.491ZM274.96 514.491H315.354L325.275 529.373H265.039L274.96 514.491ZM486.141 515.2H576.85L586.063 529.373H476.929L486.141 515.2ZM367.795 515.2H458.504L468.425 529.373H358.582L367.795 515.2ZM131.811 515.2H222.52L231.732 529.373H122.598L131.811 515.2ZM13.4646 515.2H104.173L114.094 529.373H4.25197L13.4646 515.2ZM594.567 533.625H704.409L695.196 547.798H604.488L594.567 533.625ZM522.283 601.656L566.929 533.625H586.063L531.496 615.829L522.283 601.656ZM501.732 533.625H561.26L552.047 548.507H510.945L501.732 533.625ZM476.929 533.625H496.063L528.661 583.231L519.449 597.404L476.929 533.625ZM358.582 533.625H468.425L458.504 547.798H367.795L358.582 533.625ZM240.236 533.625H350.079L340.866 547.798H250.157L240.236 533.625ZM167.953 601.656L212.598 533.625H231.732L177.165 615.829L167.953 601.656ZM147.401 533.625H206.929L197.716 548.507H156.614L147.401 533.625ZM122.598 533.625H141.732L174.331 583.231L165.118 597.404L122.598 533.625ZM4.25197 533.625H114.094L104.173 547.798H13.4646L4.25197 533.625ZM581.102 549.924L590.315 535.751L632.834 599.53H613.7L581.102 549.924ZM472.677 535.751L481.889 549.924L436.535 617.955H417.401L472.677 535.751ZM354.331 535.751L363.543 549.924L330.945 599.53H311.811L354.331 535.751ZM226.772 549.924L235.984 535.751L278.504 599.53H259.37L226.772 549.924ZM118.346 535.751L127.559 549.924L82.2047 617.955H63.0708L118.346 535.751ZM639.921 601.656L673.228 552.05H691.653L649.842 615.829L639.921 601.656ZM632.834 552.05H667.559L649.842 578.27L632.834 552.05ZM607.322 552.05H627.165L647.007 582.522L637.086 597.404L607.322 552.05ZM415.984 582.522L435.827 552.05H455.669L425.905 597.404L415.984 582.522ZM395.433 552.05H430.157L413.149 578.27L395.433 552.05ZM371.338 552.05H389.764L423.071 601.656L413.149 615.829L371.338 552.05ZM285.59 601.656L318.897 552.05H337.323L295.512 615.829L285.59 601.656ZM278.504 552.05H313.228L295.512 578.27L278.504 552.05ZM252.992 552.05H272.834L292.677 582.522L282.756 597.404L252.992 552.05ZM61.6535 582.522L81.496 552.05H101.339L71.5748 597.404L61.6535 582.522ZM41.1023 552.05H75.8267L58.8189 578.27L41.1023 552.05ZM17.0079 552.05H35.4331L68.7401 601.656L58.8189 615.829L17.0079 552.05ZM514.488 552.759H548.504L531.496 578.979L514.488 552.759ZM160.157 552.759H194.173L177.165 578.979L160.157 552.759ZM578.267 554.176L588.189 569.058L567.637 599.53H548.504L578.267 554.176ZM475.512 568.349L484.724 554.176L527.244 617.955H508.11L475.512 568.349ZM357.165 569.058L366.378 554.176L396.85 599.53H377.008L357.165 569.058ZM223.937 554.176L233.858 569.058L213.307 599.53H194.173L223.937 554.176ZM121.181 568.349L130.394 554.176L172.913 617.955H153.779L121.181 568.349ZM2.83464 569.058L12.0472 554.176L42.5197 599.53H22.6772L2.83464 569.058ZM472.677 572.601L489.685 598.822H454.96L472.677 572.601ZM118.346 572.601L135.354 598.822H100.63L118.346 572.601ZM591.023 573.31L608.031 599.53H573.307L591.023 573.31ZM354.331 573.31L371.338 599.53H336.614L354.331 573.31ZM236.693 573.31L253.701 599.53H218.976L236.693 573.31ZM452.126 603.074H492.519L502.441 617.955H442.204L452.126 603.074ZM97.7952 603.074H138.189L148.11 617.955H87.874L97.7952 603.074ZM544.96 603.782H635.669L645.59 617.955H535.748L544.96 603.782ZM190.63 603.782H281.338L291.26 617.955H181.417L190.63 603.782ZM308.976 603.782H399.685L408.897 617.955H299.764L308.976 603.782ZM654.094 622.207H673.228L705.826 671.814L696.614 685.987L654.094 622.207ZM535.748 622.207H645.59L635.669 636.381H544.96L535.748 622.207ZM417.401 622.207H527.244L518.031 636.381H427.323L417.401 622.207ZM345.118 690.239L389.764 622.207H408.897L354.331 704.412L345.118 690.239ZM324.567 622.207H384.094L374.882 637.089H333.779L324.567 622.207ZM299.764 622.207H318.897L351.496 671.814L342.283 685.987L299.764 622.207ZM181.417 622.207H291.26L281.338 636.381H190.63L181.417 622.207ZM63.0708 622.207H172.913L163.701 636.381H72.9921L63.0708 622.207ZM649.842 624.333L659.055 638.507L613.7 706.538H594.567L649.842 624.333ZM295.512 624.333L304.724 638.507L259.37 706.538H240.236L295.512 624.333ZM177.165 624.333L186.378 638.507L153.779 688.113H134.646L177.165 624.333ZM531.496 624.333L540.708 638.507L508.11 688.113H488.976L531.496 624.333ZM403.937 638.507L413.149 624.333L455.669 688.113H436.535L403.937 638.507ZM49.6063 638.507L58.8189 624.333L101.339 688.113H82.2047L49.6063 638.507ZM593.149 671.105L612.992 640.633H632.834L603.071 685.987L593.149 671.105ZM572.598 640.633H607.322L590.315 666.853L572.598 640.633ZM590.315 704.412L548.504 640.633H566.929L600.236 690.239L590.315 704.412ZM462.756 690.239L496.063 640.633H514.488L472.677 704.412L462.756 690.239ZM455.669 640.633H490.393L472.677 666.853L455.669 640.633ZM430.157 640.633H450L469.842 671.105L459.921 685.987L430.157 640.633ZM238.819 671.105L258.661 640.633H278.504L248.74 685.987L238.819 671.105ZM218.268 640.633H252.992L235.984 666.853L218.268 640.633ZM194.173 640.633H212.598L245.905 690.239L235.984 704.412L194.173 640.633ZM108.425 690.239L141.732 640.633H160.157L118.346 704.412L108.425 690.239ZM101.339 640.633H136.063L118.346 666.853L101.339 640.633ZM75.8267 640.633H95.6692L115.512 671.105L105.59 685.987L75.8267 640.633ZM337.323 641.341H371.338L354.331 667.562L337.323 641.341ZM652.677 656.932L661.889 642.759L704.409 706.538H685.275L652.677 656.932ZM534.33 657.64L543.543 642.759L574.015 688.113H554.173L534.33 657.64ZM401.102 642.759L411.023 657.64L390.472 688.113H371.338L401.102 642.759ZM298.346 656.932L307.559 642.759L350.079 706.538H330.945L298.346 656.932ZM180 657.64L189.212 642.759L219.685 688.113H199.842L180 657.64ZM46.7716 642.759L56.6929 657.64L36.1417 688.113H17.0079L46.7716 642.759ZM649.842 661.184L666.85 687.404H632.126L649.842 661.184ZM295.512 661.184L312.52 687.404H277.795L295.512 661.184ZM531.496 661.892L548.504 688.113H513.779L531.496 661.892ZM413.858 661.892L430.866 688.113H396.142L413.858 661.892ZM177.165 661.892L194.173 688.113H159.449L177.165 661.892ZM59.5275 661.892L76.5354 688.113H41.811L59.5275 661.892ZM629.291 691.656H669.685L679.606 706.538H619.37L629.291 691.656ZM274.96 691.656H315.354L325.275 706.538H265.039L274.96 691.656ZM486.141 692.365H576.85L586.063 706.538H476.929L486.141 692.365ZM367.795 692.365H458.504L468.425 706.538H358.582L367.795 692.365ZM131.811 692.365H222.52L231.732 706.538H122.598L131.811 692.365ZM13.4646 692.365H104.173L114.094 706.538H4.25197L13.4646 692.365Z" fill="white"/>
</svg>
