<svg width="709" height="709" viewBox="0 0 709 709" fill="none" xmlns="http://www.w3.org/2000/svg">
<path d="M705.826 22.6802L659.763 46.066L641.338 36.8534L705.826 4.25507V22.6802ZM705.826 114.097L595.984 58.8219L612.992 50.318L688.818 88.5857V36.8534L705.826 28.3495V114.097ZM705.826 232.444L688.818 223.231V148.113L637.086 173.625L620.078 165.121L705.826 121.893V232.444ZM705.826 257.247L630 295.515L681.732 321.026V338.034L595.984 295.515L705.826 240.239V257.247ZM705.826 279.924L658.346 304.019L641.338 295.515L705.826 262.916V279.924ZM705.826 350.082L686.693 340.869V294.806L705.826 285.593V350.082ZM705.826 377.011L659.763 400.397L641.338 391.184L705.826 358.586V377.011ZM705.826 468.428L595.984 413.152L612.992 404.648L688.818 442.916V391.184L705.826 382.68V468.428ZM705.826 586.774L688.818 577.562V502.444L637.086 527.956L620.078 519.452L705.826 476.223V586.774ZM705.826 611.578L630 649.845L681.732 675.357V692.365L595.984 649.845L705.826 594.57V611.578ZM705.826 634.255L658.346 658.349L641.338 649.845L705.826 617.247V634.255ZM705.826 704.412L686.693 695.2V649.137L705.826 639.924V704.412ZM681.732 669.688L663.307 661.184L681.732 651.971V669.688ZM593.149 559.845L610.866 568.349V620.081L685.984 581.814L702.992 590.318L593.149 645.593V559.845ZM593.149 535.751L658.346 568.349L639.212 577.562L593.149 554.176V535.751ZM593.149 462.759L612.283 471.971V518.034L593.149 527.247V462.759ZM593.149 440.082L658.346 472.68L641.338 481.184L593.149 457.089V440.082ZM617.244 492.522V474.806L635.669 484.019L617.244 492.522ZM661.181 544.963V564.097L595.984 531.499L615.118 522.286L661.181 544.963ZM661.181 540.003L642.756 530.79L661.181 521.578V540.003ZM615.826 589.609V571.184L633.543 580.396L615.826 589.609ZM666.141 566.223V518.743L683.858 510.239V575.436L666.141 566.223ZM663.307 570.475L680.315 578.979L615.826 611.578V594.57L663.307 570.475ZM593.149 417.404L702.992 472.68L617.244 515.2V498.192L668.976 472.68L593.149 434.412V417.404ZM637.795 362.837V344.412L656.22 353.625L637.795 362.837ZM615.826 398.271V333.074L632.834 341.578V389.058L615.826 398.271ZM665.433 403.231L683.858 394.019V412.444L665.433 403.231ZM683.858 417.404V434.412L618.661 401.814L635.669 393.31L683.858 417.404ZM681.732 315.357L663.307 306.853L681.732 297.641V315.357ZM684.567 345.121L702.992 354.334L637.795 386.932V367.798L684.567 345.121ZM593.149 299.058L678.897 342.286L661.889 350.79L610.866 325.278V400.397L593.149 409.609V299.058ZM593.149 205.515L610.866 214.019V265.751L685.984 227.483L702.992 235.987L593.149 291.263V205.515ZM593.149 181.42L658.346 214.019L639.212 223.231L593.149 199.845V181.42ZM593.149 108.428L612.283 117.641V163.704L593.149 172.916V108.428ZM593.149 85.751L658.346 118.349L641.338 126.853L593.149 102.759V85.751ZM617.244 138.192V120.475L635.669 129.688L617.244 138.192ZM661.181 190.633V209.767L595.984 177.168L615.118 167.956L661.181 190.633ZM661.181 185.672L642.756 176.46L661.181 167.247V185.672ZM615.826 235.279V216.853L633.543 226.066L615.826 235.279ZM666.141 211.893V164.412L683.858 155.909V221.105L666.141 211.893ZM663.307 216.145L680.315 224.649L615.826 257.247V240.239L663.307 216.145ZM593.149 63.0739L702.992 118.349L617.244 160.869V143.861L668.976 118.349L593.149 80.0818V63.0739ZM665.433 48.9007L683.858 39.688V58.1133L665.433 48.9007ZM635.669 38.9794L683.858 63.0739V80.0818L618.661 47.4833L635.669 38.9794ZM588.189 80.0818L512.362 118.349L563.385 143.861V160.869L477.638 118.349L588.189 63.0739V80.0818ZM588.189 102.759L540 126.853L522.992 118.349L588.189 85.751V102.759ZM588.189 172.916L569.055 163.704V117.641L588.189 108.428V172.916ZM588.189 199.845L542.126 223.231L522.992 214.019L588.189 181.42V199.845ZM588.189 291.263L477.638 235.987L494.645 227.483L570.472 265.751V214.019L588.189 205.515V291.263ZM588.189 409.609L570.472 400.397V325.278L519.448 350.79L502.441 342.286L588.189 299.058V409.609ZM588.189 434.412L512.362 472.68L563.385 498.192V515.2L477.638 472.68L588.189 417.404V434.412ZM588.189 457.089L540 481.184L522.992 472.68L588.189 440.082V457.089ZM588.189 527.247L569.055 518.034V471.971L588.189 462.759V527.247ZM588.189 554.176L542.126 577.562L522.992 568.349L588.189 535.751V554.176ZM588.189 645.593L477.638 590.318L494.645 581.814L570.472 620.081V568.349L588.189 559.845V645.593ZM499.606 692.365V675.357L550.63 649.845L474.803 611.578V594.57L585.354 649.845L499.606 692.365ZM493.937 695.2L474.803 704.412V639.924L493.937 649.137V695.2ZM469.842 22.6802L423.779 46.066L404.645 36.8534L469.842 4.25507V22.6802ZM469.842 114.097L360 58.8219L377.008 50.318L452.126 88.5857V36.8534L469.842 28.3495V114.097ZM469.842 232.444L452.126 223.231V148.113L401.102 173.625L384.094 165.121L469.842 121.893V232.444ZM469.842 257.247L394.016 295.515L445.748 321.026V338.034L360 295.515L469.842 240.239V257.247ZM469.842 279.924L421.653 304.019L404.645 295.515L469.842 262.916V279.924ZM469.842 350.082L450.708 340.869V294.806L469.842 285.593V350.082ZM469.842 377.011L423.779 400.397L404.645 391.184L469.842 358.586V377.011ZM469.842 468.428L360 413.152L377.008 404.648L452.126 442.916V391.184L469.842 382.68V468.428ZM469.842 586.774L452.126 577.562V502.444L401.102 527.956L384.094 519.452L469.842 476.223V586.774ZM469.842 611.578L394.016 649.845L445.748 675.357V692.365L360 649.845L469.842 594.57V611.578ZM469.842 634.255L421.653 658.349L404.645 649.845L469.842 617.247V634.255ZM469.842 704.412L450.708 695.2V649.137L469.842 639.924V704.412ZM445.748 669.688L427.323 661.184L445.748 651.971V669.688ZM357.165 559.845L374.173 568.349V620.081L450 581.814L467.008 590.318L357.165 645.593V559.845ZM357.165 535.751L421.653 568.349L403.228 577.562L357.165 554.176V535.751ZM357.165 462.759L376.299 471.971V518.034L357.165 527.247V462.759ZM357.165 440.082L421.653 472.68L404.645 481.184L357.165 457.089V440.082ZM381.26 492.522V474.806L399.685 484.019L381.26 492.522ZM425.197 544.963V564.097L360 531.499L378.425 522.286L425.197 544.963ZM425.197 540.003L406.771 530.79L425.197 521.578V540.003ZM379.134 589.609V571.184L397.559 580.396L379.134 589.609ZM430.157 566.223V518.743L447.165 510.239V575.436L430.157 566.223ZM427.323 570.475L444.33 578.979L379.134 611.578V594.57L427.323 570.475ZM357.165 417.404L467.008 472.68L381.26 515.2V498.192L432.992 472.68L357.165 434.412V417.404ZM401.811 362.837V344.412L420.236 353.625L401.811 362.837ZM379.134 398.271V333.074L396.85 341.578V389.058L379.134 398.271ZM429.449 403.231L447.165 394.019V412.444L429.449 403.231ZM447.165 417.404V434.412L382.677 401.814L399.685 393.31L447.165 417.404ZM445.748 315.357L427.323 306.853L445.748 297.641V315.357ZM447.874 345.121L467.008 354.334L401.811 386.932V367.798L447.874 345.121ZM357.165 299.058L442.913 342.286L425.905 350.79L374.173 325.278V400.397L357.165 409.609V299.058ZM357.165 205.515L374.173 214.019V265.751L450 227.483L467.008 235.987L357.165 291.263V205.515ZM357.165 181.42L421.653 214.019L403.228 223.231L357.165 199.845V181.42ZM357.165 108.428L376.299 117.641V163.704L357.165 172.916V108.428ZM357.165 85.751L421.653 118.349L404.645 126.853L357.165 102.759V85.751ZM381.26 138.192V120.475L399.685 129.688L381.26 138.192ZM425.197 190.633V209.767L360 177.168L378.425 167.956L425.197 190.633ZM425.197 185.672L406.771 176.46L425.197 167.247V185.672ZM379.134 235.279V216.853L397.559 226.066L379.134 235.279ZM430.157 211.893V164.412L447.165 155.909V221.105L430.157 211.893ZM427.323 216.145L444.33 224.649L379.134 257.247V240.239L427.323 216.145ZM357.165 63.0739L467.008 118.349L381.26 160.869V143.861L432.992 118.349L357.165 80.0818V63.0739ZM429.449 48.9007L447.165 39.688V58.1133L429.449 48.9007ZM399.685 38.9794L447.165 63.0739V80.0818L382.677 47.4833L399.685 38.9794ZM517.323 661.184L499.606 669.688V651.971L517.323 661.184ZM474.803 617.247L540 649.845L522.992 658.349L474.803 634.255V617.247ZM520.157 540.003V521.578L537.874 530.79L520.157 540.003ZM497.48 575.436V510.239L515.197 518.743V566.223L497.48 575.436ZM547.086 580.396L565.511 571.184V589.609L547.086 580.396ZM565.511 594.57V611.578L500.315 578.979L517.323 570.475L565.511 594.57ZM563.385 492.522L545.669 484.019L563.385 474.806V492.522ZM566.22 522.286L585.354 531.499L520.157 564.097V544.963L566.22 522.286ZM474.803 476.223L560.551 519.452L543.543 527.956L492.519 502.444V577.562L474.803 586.774V476.223ZM474.803 382.68L492.519 391.184V442.916L568.346 404.648L585.354 413.152L474.803 468.428V382.68ZM474.803 358.586L540 391.184L520.866 400.397L474.803 377.011V358.586ZM474.803 285.593L493.937 294.806V340.869L474.803 350.082V285.593ZM474.803 262.916L540 295.515L522.992 304.019L474.803 279.924V262.916ZM499.606 315.357V297.641L517.323 306.853L499.606 315.357ZM542.834 362.837L530.078 356.46L525.118 353.625L542.834 344.412V362.837ZM497.48 412.444V394.019L515.905 403.231L497.48 412.444ZM547.795 389.058V341.578L565.511 333.074V398.271L547.795 389.058ZM545.669 393.31L562.677 401.814L497.48 434.412V417.404L545.669 393.31ZM542.834 367.798V386.932L496.771 363.546V362.837H495.354L477.638 354.334L496.771 345.121L511.653 352.208L542.834 367.798ZM474.803 240.239L585.354 295.515L499.606 338.034V321.026L550.63 295.515L474.803 257.247V240.239ZM520.157 185.672V167.247L537.874 176.46L520.157 185.672ZM497.48 221.105V155.909L515.197 164.412V211.893L497.48 221.105ZM547.086 226.066L565.511 216.853V235.279L547.086 226.066ZM565.511 240.239V257.247L500.315 224.649L517.323 216.145L565.511 240.239ZM563.385 138.192L545.669 129.688L563.385 120.475V138.192ZM566.22 167.956L585.354 177.168L520.157 209.767V190.633L566.22 167.956ZM474.803 121.893L560.551 165.121L543.543 173.625L492.519 148.113V223.231L474.803 232.444V121.893ZM474.803 28.3495L492.519 36.8534V88.5857L568.346 50.318L585.354 58.8219L474.803 114.097V28.3495ZM474.803 4.25507L540 36.8534L520.866 46.066L474.803 22.6802V4.25507ZM497.48 58.1133V39.688L515.905 48.9007L497.48 58.1133ZM545.669 38.9794L562.677 47.4833L497.48 80.0818V63.0739L545.669 38.9794ZM351.496 80.0818L275.669 118.349L327.401 143.861V160.869L241.653 118.349L351.496 63.0739V80.0818ZM351.496 102.759L304.016 126.853L287.008 118.349L351.496 85.751V102.759ZM351.496 172.916L332.362 163.704V117.641L351.496 108.428V172.916ZM351.496 199.845L305.433 223.231L287.008 214.019L351.496 181.42V199.845ZM351.496 291.263L241.653 235.987L258.661 227.483L334.488 265.751V214.019L351.496 205.515V291.263ZM351.496 409.609L334.488 400.397V325.278L282.756 350.79L265.748 342.286L351.496 299.058V409.609ZM351.496 434.412L275.669 472.68L327.401 498.192V515.2L241.653 472.68L351.496 417.404V434.412ZM351.496 457.089L304.016 481.184L287.008 472.68L351.496 440.082V457.089ZM351.496 527.247L332.362 518.034V471.971L351.496 462.759V527.247ZM351.496 554.176L305.433 577.562L287.008 568.349L351.496 535.751V554.176ZM351.496 645.593L241.653 590.318L258.661 581.814L334.488 620.081V568.349L351.496 559.845V645.593ZM262.913 692.365V675.357L314.646 649.845L238.819 611.578V594.57L348.661 649.845L262.913 692.365ZM257.953 695.2L238.819 704.412V639.924L257.953 649.137V695.2ZM233.858 22.6802L187.795 46.066L168.661 36.8534L233.858 4.25507V22.6802ZM233.858 114.097L123.307 58.8219L140.315 50.318L216.142 88.5857V36.8534L233.858 28.3495V114.097ZM233.858 232.444L216.142 223.231V148.113L165.118 173.625L148.11 165.121L233.858 121.893V232.444ZM233.858 257.247L158.031 295.515L209.055 321.026V338.034L123.307 295.515L233.858 240.239V257.247ZM233.858 279.924L185.669 304.019L168.661 295.515L233.858 262.916V279.924ZM233.858 350.082L214.724 340.869V294.806L233.858 285.593V350.082ZM233.858 377.011L187.795 400.397L168.661 391.184L233.858 358.586V377.011ZM233.858 468.428L123.307 413.152L140.315 404.648L216.142 442.916V391.184L233.858 382.68V468.428ZM233.858 586.774L216.142 577.562V502.444L165.118 527.956L148.11 519.452L233.858 476.223V586.774ZM233.858 611.578L158.031 649.845L209.055 675.357V692.365L123.307 649.845L233.858 594.57V611.578ZM233.858 634.255L185.669 658.349L168.661 649.845L233.858 617.247V634.255ZM233.858 704.412L214.724 695.2V649.137L233.858 639.924V704.412ZM209.055 669.688L191.338 661.184L209.055 651.971V669.688ZM120.472 559.845L138.189 568.349V620.081L214.016 581.814L231.023 590.318L120.472 645.593V559.845ZM120.472 535.751L185.669 568.349L166.535 577.562L120.472 554.176V535.751ZM120.472 462.759L139.606 471.971V518.034L120.472 527.247V462.759ZM120.472 440.082L185.669 472.68L168.661 481.184L120.472 457.089V440.082ZM145.276 492.522V474.806L162.992 484.019L145.276 492.522ZM188.504 544.963V564.097L123.307 531.499L142.441 522.286L188.504 544.963ZM188.504 540.003L170.787 530.79L188.504 521.578V540.003ZM143.15 589.609V571.184L161.575 580.396L143.15 589.609ZM193.464 566.223V518.743L211.181 510.239V575.436L193.464 566.223ZM191.338 570.475L208.346 578.979L143.15 611.578V594.57L191.338 570.475ZM120.472 417.404L231.023 472.68L145.276 515.2V498.192L196.299 472.68L120.472 434.412V417.404ZM165.827 362.837V344.412L183.543 353.625L165.827 362.837ZM143.15 398.271V333.074L160.866 341.578V389.058L143.15 398.271ZM192.756 403.231L211.181 394.019V412.444L192.756 403.231ZM211.181 417.404V434.412L145.984 401.814L162.992 393.31L211.181 417.404ZM209.055 315.357L191.338 306.853L209.055 297.641V315.357ZM211.89 345.121L231.023 354.334L165.827 386.932V367.798L211.89 345.121ZM120.472 299.058L206.22 342.286L189.212 350.79L138.189 325.278V400.397L120.472 409.609V299.058ZM120.472 205.515L138.189 214.019V265.751L214.016 227.483L231.023 235.987L120.472 291.263V205.515ZM120.472 181.42L185.669 214.019L166.535 223.231L120.472 199.845V181.42ZM120.472 108.428L139.606 117.641V163.704L120.472 172.916V108.428ZM120.472 85.751L185.669 118.349L168.661 126.853L120.472 102.759V85.751ZM145.276 138.192V120.475L162.992 129.688L145.276 138.192ZM188.504 190.633V209.767L123.307 177.168L142.441 167.956L188.504 190.633ZM188.504 185.672L170.787 176.46L188.504 167.247V185.672ZM143.15 235.279V216.853L161.575 226.066L143.15 235.279ZM193.464 211.893V164.412L211.181 155.909V221.105L193.464 211.893ZM191.338 216.145L208.346 224.649L143.15 257.247V240.239L191.338 216.145ZM120.472 63.0739L231.023 118.349L145.276 160.869V143.861L196.299 118.349L120.472 80.0818V63.0739ZM192.756 48.9007L211.181 39.688V58.1133L192.756 48.9007ZM162.992 38.9794L211.181 63.0739V80.0818L145.984 47.4833L162.992 38.9794ZM281.338 661.184L262.913 669.688V651.971L281.338 661.184ZM238.819 617.247L304.016 649.845L287.008 658.349L238.819 634.255V617.247ZM283.464 540.003V521.578L301.89 530.79L283.464 540.003ZM261.496 575.436V510.239L278.504 518.743V566.223L261.496 575.436ZM311.102 580.396L329.527 571.184V589.609L311.102 580.396ZM329.527 594.57V611.578L264.331 578.979L281.338 570.475L329.527 594.57ZM327.401 492.522L308.976 484.019L327.401 474.806V492.522ZM330.236 522.286L348.661 531.499L283.464 564.097V544.963L330.236 522.286ZM238.819 476.223L324.567 519.452L307.559 527.956L256.535 502.444V577.562L238.819 586.774V476.223ZM238.819 382.68L256.535 391.184V442.916L331.653 404.648L348.661 413.152L238.819 468.428V382.68ZM238.819 358.586L304.016 391.184L284.882 400.397L238.819 377.011V358.586ZM238.819 285.593L257.953 294.806V340.869L238.819 350.082V285.593ZM238.819 262.916L304.016 295.515L287.008 304.019L238.819 279.924V262.916ZM262.913 315.357V297.641L281.338 306.853L262.913 315.357ZM306.85 362.837L294.094 356.46L288.425 353.625L306.85 344.412V362.837ZM261.496 412.444V394.019L279.212 403.231L261.496 412.444ZM311.811 389.058V341.578L329.527 333.074V398.271L311.811 389.058ZM308.976 393.31L325.984 401.814L261.496 434.412V417.404L308.976 393.31ZM306.85 367.798V386.932L260.787 363.546V362.837H259.37L241.653 354.334L260.787 345.121L275.669 352.208L306.85 367.798ZM238.819 240.239L348.661 295.515L262.913 338.034V321.026L314.646 295.515L238.819 257.247V240.239ZM283.464 185.672V167.247L301.89 176.46L283.464 185.672ZM261.496 221.105V155.909L278.504 164.412V211.893L261.496 221.105ZM311.102 226.066L329.527 216.853V235.279L311.102 226.066ZM329.527 240.239V257.247L264.331 224.649L281.338 216.145L329.527 240.239ZM327.401 138.192L308.976 129.688L327.401 120.475V138.192ZM330.236 167.956L348.661 177.168L283.464 209.767V190.633L330.236 167.956ZM238.819 121.893L324.567 165.121L307.559 173.625L256.535 148.113V223.231L238.819 232.444V121.893ZM238.819 28.3495L256.535 36.8534V88.5857L331.653 50.318L348.661 58.8219L238.819 114.097V28.3495ZM238.819 4.25507L304.016 36.8534L284.882 46.066L238.819 22.6802V4.25507ZM261.496 58.1133V39.688L279.212 48.9007L261.496 58.1133ZM308.976 38.9794L325.984 47.4833L261.496 80.0818V63.0739L308.976 38.9794ZM115.512 80.0818L39.685 118.349L91.4173 143.861V160.869L5.66929 118.349L115.512 63.0739V80.0818ZM115.512 102.759L67.3228 126.853L50.3149 118.349L115.512 85.751V102.759ZM115.512 172.916L96.3779 163.704V117.641L115.512 108.428V172.916ZM115.512 199.845L69.4488 223.231L50.3149 214.019L115.512 181.42V199.845ZM115.512 291.263L5.66929 235.987L22.6772 227.483L97.7952 265.751V214.019L115.512 205.515V291.263ZM115.512 409.609L97.7952 400.397V325.278L46.7716 350.79L29.7638 342.286L115.512 299.058V409.609ZM115.512 434.412L39.685 472.68L91.4173 498.192V515.2L5.66929 472.68L115.512 417.404V434.412ZM115.512 457.089L67.3228 481.184L50.3149 472.68L115.512 440.082V457.089ZM115.512 527.247L96.3779 518.034V471.971L115.512 462.759V527.247ZM115.512 554.176L69.4488 577.562L50.3149 568.349L115.512 535.751V554.176ZM115.512 645.593L5.66929 590.318L22.6772 581.814L97.7952 620.081V568.349L115.512 559.845V645.593ZM26.9291 692.365V675.357L78.6614 649.845L2.83464 611.578V594.57L112.677 649.845L26.9291 692.365ZM21.9685 695.2L2.83464 704.412V639.924L21.9685 649.137V695.2ZM45.3543 661.184L26.9291 669.688V651.971L45.3543 661.184ZM2.83464 617.247L67.3228 649.845L50.3149 658.349L2.83464 634.255V617.247ZM47.4803 540.003V521.578L65.9055 530.79L47.4803 540.003ZM24.8031 575.436V510.239L42.5197 518.743V566.223L24.8031 575.436ZM75.1181 580.396L92.8346 571.184V589.609L75.1181 580.396ZM92.8346 594.57V611.578L28.3464 578.979L45.3543 570.475L92.8346 594.57ZM91.4173 492.522L72.9921 484.019L91.4173 474.806V492.522ZM93.5433 522.286L112.677 531.499L47.4803 564.097V544.963L93.5433 522.286ZM2.83464 476.223L88.5826 519.452L71.5748 527.956L19.8425 502.444V577.562L2.83464 586.774V476.223ZM2.83464 382.68L19.8425 391.184V442.916L95.6692 404.648L112.677 413.152L2.83464 468.428V382.68ZM2.83464 358.586L67.3228 391.184L48.8976 400.397L2.83464 377.011V358.586ZM2.83464 285.593L21.9685 294.806V340.869L2.83464 350.082V285.593ZM2.83464 262.916L67.3228 295.515L50.3149 304.019L2.83464 279.924V262.916ZM26.9291 315.357V297.641L45.3543 306.853L26.9291 315.357ZM70.8661 362.837L58.1102 356.46L52.4409 353.625L70.8661 344.412V362.837ZM24.8031 412.444V394.019L43.2283 403.231L24.8031 412.444ZM75.8267 389.058V341.578L92.8346 333.074V398.271L75.8267 389.058ZM72.9921 393.31L90 401.814L24.8031 434.412V417.404L72.9921 393.31ZM70.8661 367.798V386.932L24.0945 363.546V362.837H22.6772L5.66929 354.334L24.0945 345.121L39.685 352.208L70.8661 367.798ZM2.83464 240.239L112.677 295.515L26.9291 338.034V321.026L78.6614 295.515L2.83464 257.247V240.239ZM47.4803 185.672V167.247L65.9055 176.46L47.4803 185.672ZM24.8031 221.105V155.909L42.5197 164.412V211.893L24.8031 221.105ZM75.1181 226.066L92.8346 216.853V235.279L75.1181 226.066ZM92.8346 240.239V257.247L28.3464 224.649L45.3543 216.145L92.8346 240.239ZM91.4173 138.192L72.9921 129.688L91.4173 120.475V138.192ZM93.5433 167.956L112.677 177.168L47.4803 209.767V190.633L93.5433 167.956ZM2.83464 121.893L88.5826 165.121L71.5748 173.625L19.8425 148.113V223.231L2.83464 232.444V121.893ZM2.83464 28.3495L19.8425 36.8534V88.5857L95.6692 50.318L112.677 58.8219L2.83464 114.097V28.3495ZM2.83464 4.25507L67.3228 36.8534L48.8976 46.066L2.83464 22.6802V4.25507ZM24.8031 58.1133V39.688L43.2283 48.9007L24.8031 58.1133ZM72.9921 38.9794L90 47.4833L24.8031 80.0818V63.0739L72.9921 38.9794ZM708.661 0.00305176H702.992L637.795 32.6014V13.4676L665.433 0.00305176H654.803L637.795 8.50696V0.00305176H632.834V34.7275L615.826 43.9401V0.00305176H610.866V46.066L593.149 55.2786V0.00305176H588.189V55.2786L570.472 46.066V0.00305176H565.511V43.9401L547.795 34.7275V0.00305176H542.834V8.50696L526.535 0.00305176H515.905L542.834 13.4676V32.6014L477.638 0.00305176H467.008L401.811 32.6014V13.4676L429.449 0.00305176H418.11L401.811 8.50696V0.00305176H396.85V34.7275L379.134 43.9401V0.00305176H374.173V46.066L357.165 55.2786V0.00305176H351.496V55.2786L334.488 46.066V0.00305176H329.527V43.9401L311.811 34.7275V0.00305176H306.85V8.50696L290.551 0.00305176H279.212L306.85 13.4676V32.6014L241.653 0.00305176H231.023L165.827 32.6014V13.4676L192.756 0.00305176H182.126L165.827 8.50696V0.00305176H160.866V34.7275L143.15 43.9401V0.00305176H138.189V46.066L120.472 55.2786V0.00305176H115.512V55.2786L97.7952 46.066V0.00305176H92.8346V43.9401L75.8267 34.7275V0.00305176H70.8661V8.50696L53.8582 0.00305176H43.2283L70.8661 13.4676V32.6014L5.66929 0.00305176H0V708.664H5.66929L24.0945 699.451L43.2283 708.664H53.8582L52.4409 707.955L70.8661 698.743V708.664H75.8267V695.908L92.8346 687.404V708.664H97.7952V679.609L46.7716 705.121L29.7638 696.617L115.512 653.388V708.664H120.472V653.388L206.22 696.617L189.212 705.121L138.189 679.609V708.664H143.15V687.404L160.866 695.908V708.664H165.827V698.743L183.543 707.955L182.126 708.664H192.756L211.89 699.451L231.023 708.664H241.653L260.787 699.451L279.212 708.664H290.551L288.425 707.955L306.85 698.743V708.664H311.811V695.908L329.527 687.404V708.664H334.488V679.609L282.756 705.121L265.748 696.617L351.496 653.388V708.664H357.165V653.388L442.913 696.617L425.905 705.121L374.173 679.609V708.664H379.134V687.404L396.85 695.908V708.664H401.811V698.743L420.236 707.955L418.11 708.664H429.449L447.874 699.451L467.008 708.664H477.638L496.771 699.451L515.905 708.664H526.535L525.118 707.955L542.834 698.743V708.664H547.795V695.908L565.511 687.404V708.664H570.472V679.609L519.448 705.121L502.441 696.617L588.189 653.388V708.664H593.149V653.388L678.897 696.617L661.889 705.121L610.866 679.609V708.664H615.826V687.404L632.834 695.908V708.664H637.795V698.743L656.22 707.955L654.803 708.664H665.433L684.567 699.451L702.992 708.664H708.661V0.00305176Z" fill="white"/>
</svg>
