<svg width="709" height="709" viewBox="0 0 709 709" fill="none" xmlns="http://www.w3.org/2000/svg">
<path d="M657.637 0.00305176L659.055 2.8377L659.763 3.54635L660.472 4.25505C661.181 4.25505 661.181 4.25505 661.181 4.25505H703.7L683.149 38.2708H639.212L616.535 0.00305176H515.905L517.323 2.8377L518.031 3.54635L518.74 4.25505H561.968L541.417 38.2708H497.48L474.803 0.00305176H374.173L375.59 2.8377C375.59 3.54636 376.299 3.54639 377.008 4.25505H420.236L399.685 38.2708H355.748L333.071 0.00305176H232.441L233.858 2.8377L234.567 3.54635C235.275 3.54635 235.275 3.54639 235.275 4.25505H235.984H278.504L257.953 38.2708H214.016L191.338 0.00305176H90.7086L92.1259 2.8377C92.1259 3.54636 92.8346 3.54639 93.5433 4.25505H94.2519H136.772L116.22 38.2708H72.2834L49.6063 0.00305176H0V7.08966L20.5512 41.1054L0 75.1211V85.751L21.2598 121.184C21.9685 121.184 21.9685 121.893 21.9685 121.893C22.6772 121.893 22.6772 121.893 22.6772 121.893H65.9055L45.3543 155.908H1.41732L0 153.782V164.412L1.41732 161.578H47.4803C47.4803 161.578 47.4803 161.578 48.189 161.578C48.8976 161.578 48.8976 160.869 48.8976 160.869H49.6063L70.8661 124.727L91.4173 158.743L69.4488 195.594H23.3858C22.6772 195.594 21.9685 196.302 21.9685 196.302C21.9685 196.302 21.9685 196.302 21.2598 196.302L0 232.444V243.074L20.5512 277.09L0 311.105V321.735L21.2598 357.168C21.9685 357.877 21.9685 357.877 21.9685 357.877C22.6772 357.877 22.6772 357.877 22.6772 358.586H65.9055L45.3543 392.601H1.41732L0 389.767V400.397L1.41732 397.562H47.4803C47.4803 397.562 47.4803 397.562 48.189 397.562C48.8976 397.562 48.8976 397.562 48.8976 396.853H49.6063L70.8661 361.42L91.4173 395.436L69.4488 431.578H23.3858L22.6772 432.286C21.9685 432.286 21.9685 432.286 21.9685 432.286C21.9685 432.286 21.9685 432.995 21.2598 432.995L0 468.428V479.058L20.5512 513.074L0 547.089V557.719L21.2598 593.861C21.9685 593.861 21.9685 593.861 21.9685 593.861C22.6772 593.861 22.6772 594.57 22.6772 594.57H65.9055L45.3543 628.585H1.41732L0 625.751V636.381L1.41732 634.255H47.4803C47.4803 634.255 47.4803 634.255 48.189 634.255V633.546L49.6063 632.837L70.8661 597.404L91.4173 631.42L69.4488 668.27H23.3858C22.6772 668.27 21.9685 668.27 21.9685 668.27C21.9685 668.979 21.9685 668.979 21.2598 668.979L0 705.121V708.664H4.25197L25.5118 673.231H69.4488L90.7086 708.664H145.984L167.244 673.231H211.181L232.441 708.664H287.716L308.976 673.231H352.913L374.173 708.664H429.449L450.708 673.231H494.645L515.905 708.664H522.283L498.897 670.396L522.283 632.837C522.283 632.129 522.283 632.129 522.283 631.42C522.283 630.711 522.283 630.711 522.283 630.003L501.023 594.57H541.417L564.094 631.42L540.708 669.688V670.396C540.708 671.105 540.708 671.814 540.708 671.814L562.677 708.664H571.181L592.441 673.231H636.378L657.637 708.664H664.015L640.63 670.396L664.015 632.837C664.015 632.129 664.015 632.129 664.015 631.42C664.015 630.711 664.015 630.711 664.015 630.003L642.756 594.57H683.149L705.826 631.42L682.441 669.688V670.396C682.441 671.105 682.441 671.814 682.441 671.814L704.409 708.664H708.661V705.121L688.11 670.396L708.661 636.381V625.751L687.401 590.318C687.401 590.318 686.693 589.609 685.984 589.609H642.756L663.307 555.593H707.244L708.661 557.719V547.089L707.244 549.924H661.181C661.181 549.924 661.181 549.924 660.472 549.924L659.763 550.633C659.055 550.633 659.055 551.341 659.055 551.341L637.795 586.774L617.244 552.759L639.212 515.908H685.275C685.984 515.2 686.693 515.2 686.693 515.2H687.401L708.661 479.058V468.428L688.11 434.412L708.661 400.397V389.767L686.693 353.625L685.984 352.916H642.756L663.307 318.9H707.244L708.661 321.735V311.105L707.244 313.94H661.181C661.181 313.94 661.181 313.94 660.472 313.94C660.472 314.649 659.055 314.649 659.055 315.357L637.795 350.79L617.244 316.066L639.212 279.924H685.275L685.984 279.215L687.401 278.507L708.661 243.074V232.444L688.11 198.428L708.661 164.412V153.782L687.401 118.349C687.401 117.641 686.693 117.641 685.984 116.932H642.756L663.307 82.9164H707.244L708.661 85.751V75.1211L707.244 77.2471H661.181C661.181 77.2471 661.181 77.2471 660.472 77.2471V77.9558C659.763 78.6644 659.055 78.6644 659.055 78.6644L637.795 114.097L617.244 80.0818L639.212 43.2314H685.275C685.984 43.2314 686.693 43.2314 686.693 42.5227H687.401L708.661 7.08966V0.00305176H657.637ZM569.763 80.0818L593.149 42.5227C593.149 41.8141 593.149 41.1054 593.149 41.1054C593.149 40.3967 593.149 39.6881 593.149 39.6881L571.889 4.25505H612.283L634.96 41.1054L611.574 78.6644C611.574 79.3731 611.574 79.3731 611.574 80.0818C611.574 80.7904 611.574 80.7904 611.574 81.4991L632.834 116.932H592.441L569.763 80.0818ZM428.031 80.0818L451.417 42.5227C451.417 41.8141 451.417 41.1054 451.417 41.1054C451.417 40.3967 451.417 39.6881 451.417 39.6881L430.157 4.25505H470.551L493.228 41.1054L469.842 78.6644C469.842 79.3731 469.842 79.3731 469.842 80.0818C469.842 80.7904 469.842 80.7904 469.842 81.4991L491.102 116.932H450.708L428.031 80.0818ZM286.299 80.0818L309.685 42.5227C309.685 41.8141 309.685 41.1054 309.685 41.1054C309.685 40.3967 309.685 39.6881 309.685 39.6881L288.425 4.25505H328.819L351.496 41.1054L328.11 78.6644C328.11 79.3731 328.11 79.3731 328.11 80.0818C328.11 80.7904 328.11 80.7904 328.11 81.4991L349.37 116.932H308.976L286.299 80.0818ZM144.567 80.0818L167.953 42.5227C167.953 41.8141 167.953 41.1054 167.953 41.1054C167.953 40.3967 167.953 39.6881 167.953 39.6881L146.693 4.25505H187.087L209.764 41.1054L186.378 78.6644C186.378 79.3731 186.378 79.3731 186.378 80.0818C186.378 80.7904 186.378 80.7904 186.378 81.4991L207.638 116.932H167.244L144.567 80.0818ZM2.83464 80.0818L26.2205 42.5227C26.2205 41.8141 26.2205 41.1054 26.2205 41.1054C26.2205 40.3967 26.2205 39.6881 26.2205 39.6881L4.96063 4.25505H45.3543L68.0315 41.1054L44.6456 78.6644C44.6456 79.3731 44.6456 79.3731 44.6456 80.0818C44.6456 80.7904 44.6456 80.7904 44.6456 81.4991L65.9055 116.932H25.5118L2.83464 80.0818ZM475.512 80.0818L497.48 43.2314H543.543C544.252 43.2314 544.96 43.2314 544.96 42.5227L566.929 7.08966L587.48 41.1054L565.511 77.2471H519.449L518.74 77.9558C518.74 77.9558 518.031 77.9558 518.031 78.6644L496.063 114.097L475.512 80.0818ZM333.779 80.0818L355.748 43.2314H401.811C401.811 43.2314 401.811 43.2314 402.519 43.2314C403.228 43.2314 403.228 43.2314 403.228 42.5227L425.197 7.08966L445.748 41.1054L423.779 77.2471H377.716L377.008 77.9558L375.59 78.6644L354.331 114.097L333.779 80.0818ZM50.3149 80.0818L72.2834 43.2314H118.346C118.346 43.2314 118.346 43.2314 119.055 43.2314C119.764 43.2314 119.764 43.2314 119.764 42.5227H120.472L141.732 7.08966L162.283 41.1054L140.315 77.2471H94.2519C94.2519 77.2471 94.2519 77.2471 93.5433 77.2471V77.9558H92.8346L92.1259 78.6644L70.8661 114.097L50.3149 80.0818ZM192.047 80.0818L214.016 43.2314H260.079C260.787 43.2314 261.496 43.2314 261.496 42.5227H262.205L283.464 7.08966L304.016 41.1054L282.047 77.2471H235.984C235.984 77.2471 235.984 77.2471 235.275 77.2471C234.567 77.9557 234.567 77.9558 233.858 78.6644L212.598 114.097L192.047 80.0818ZM521.575 82.9164H565.511L588.189 121.184C588.897 121.184 588.897 121.893 588.897 121.893C589.606 121.893 589.606 121.893 589.606 121.893H632.834L612.283 155.908H568.346L545.669 118.349C545.669 117.641 544.96 117.641 544.252 116.932H501.023L521.575 82.9164ZM379.842 82.9164H423.779L446.456 121.184C447.165 121.184 447.165 121.893 447.165 121.893C447.874 121.893 447.874 121.893 447.874 121.893H491.102L470.551 155.908H426.614L403.937 118.349C403.937 117.641 403.228 117.641 402.519 116.932C401.811 116.932 401.811 116.932 401.811 116.932H359.291L379.842 82.9164ZM238.11 82.9164H282.047L304.724 121.184C305.433 121.184 305.433 121.893 305.433 121.893C306.142 121.893 306.142 121.893 306.142 121.893H349.37L328.819 155.908H284.882L262.205 118.349C262.205 117.641 261.496 117.641 260.787 116.932H217.559L238.11 82.9164ZM96.3779 82.9164H140.315L162.992 121.184C163.701 121.184 163.701 121.893 163.701 121.893C164.409 121.893 165.118 121.893 165.118 121.893H207.638L187.087 155.908H143.15L120.472 118.349C120.472 117.641 119.764 117.641 119.055 116.932C118.346 116.932 118.346 116.932 118.346 116.932H75.8267L96.3779 82.9164ZM640.63 198.428L664.015 160.16C664.015 160.16 664.015 159.452 664.015 158.743C664.015 158.743 664.015 158.034 664.015 157.326L642.756 121.893H683.149L705.826 158.743L682.441 197.011C682.441 197.011 682.441 197.719 682.441 198.428C682.441 198.428 682.441 199.137 682.441 199.845L703.7 235.279H663.307L640.63 198.428ZM498.897 198.428L522.283 160.16C522.283 160.16 522.283 159.452 522.283 158.743C522.283 158.743 522.283 158.034 522.283 157.326L501.023 121.893H541.417L564.094 158.743L540.708 197.011C540.708 197.011 540.708 197.719 540.708 198.428C540.708 198.428 540.708 199.137 540.708 199.845L561.968 235.279H521.575L498.897 198.428ZM357.165 198.428L380.551 160.16C380.551 160.16 380.551 159.452 380.551 158.743C380.551 158.743 380.551 158.034 380.551 157.326L359.291 121.893H399.685L422.362 158.743L398.976 197.011C398.976 197.011 398.976 197.719 398.976 198.428C398.976 198.428 398.976 199.137 398.976 199.845L420.236 235.279H379.842L357.165 198.428ZM215.433 198.428L238.819 160.16C238.819 160.16 238.819 159.452 238.819 158.743C238.819 158.743 238.819 158.034 238.819 157.326L217.559 121.893H257.953L280.63 158.743L257.244 197.011C257.244 197.011 257.244 197.719 257.244 198.428C257.244 198.428 257.244 199.137 257.244 199.845L278.504 235.279H238.11L215.433 198.428ZM73.7007 198.428L97.0866 160.16C97.0866 160.16 97.0866 159.452 97.0866 158.743C97.0866 158.743 97.0866 158.034 97.0866 157.326L75.8267 121.893H116.22L138.898 158.743L115.512 197.011C115.512 197.011 115.512 197.719 115.512 198.428C115.512 198.428 115.512 199.137 115.512 199.845L136.772 235.279H96.3779L73.7007 198.428ZM546.378 198.428L568.346 161.578H614.409C615.118 160.869 615.826 160.869 615.826 160.869L616.535 160.16L637.795 124.727L658.346 158.743L636.378 195.594H590.315C589.606 195.594 588.897 196.302 588.897 196.302L588.189 197.011L566.929 232.444L546.378 198.428ZM404.645 198.428L426.614 161.578H472.677C473.386 160.869 474.094 160.869 474.094 160.869L474.803 160.16L496.063 124.727L516.614 158.743L494.645 195.594H448.582C447.874 195.594 447.165 196.302 447.165 196.302L446.456 197.011L425.197 232.444L404.645 198.428ZM262.913 198.428L284.882 161.578H330.945C331.653 160.869 332.362 160.869 332.362 160.869L333.071 160.16L354.331 124.727L374.882 158.743L352.913 195.594H306.85C306.142 195.594 305.433 196.302 305.433 196.302C305.433 196.302 304.724 196.302 304.724 197.011L283.464 232.444L262.913 198.428ZM121.181 198.428L143.15 161.578H189.212C189.212 161.578 189.212 161.578 189.921 161.578C190.63 160.869 190.63 160.869 190.63 160.869H191.338L212.598 124.727L233.149 158.743L211.181 195.594H165.118C165.118 195.594 165.118 195.594 164.409 195.594C163.701 195.594 163.701 196.302 163.701 196.302C163.701 196.302 163.701 196.302 162.992 196.302L141.732 232.444L121.181 198.428ZM592.441 201.263H636.378L659.055 238.822C659.055 239.53 659.763 239.53 659.763 239.53C659.763 240.239 659.763 240.239 660.472 240.239C661.181 240.239 661.181 240.239 661.181 240.239H703.7L683.149 274.255H639.212L616.535 235.987C616.535 235.987 615.826 235.279 615.118 235.279H571.889L592.441 201.263ZM450.708 201.263H494.645L517.323 238.822C517.323 239.53 518.031 239.53 518.031 239.53C518.031 240.239 518.031 240.239 518.74 240.239H561.968L541.417 274.255H497.48L474.803 235.987C474.803 235.987 474.094 235.279 473.386 235.279H430.157L450.708 201.263ZM308.976 201.263H352.913L375.59 238.822C375.59 239.53 376.299 240.239 377.008 240.239H420.236L399.685 274.255H355.748L333.071 235.987C333.071 235.987 332.362 235.279 331.653 235.279H288.425L308.976 201.263ZM167.244 201.263H211.181L233.858 239.53L234.567 240.239H235.984H278.504L257.953 274.255H214.016L191.338 235.987C191.338 235.987 190.63 235.279 189.921 235.279C189.212 235.279 189.212 235.279 189.212 235.279H146.693L167.244 201.263ZM25.5118 201.263H69.4488L92.1259 238.822C92.1259 239.53 92.8346 240.239 93.5433 240.239H94.2519H136.772L116.22 274.255H72.2834L49.6063 235.987C49.6063 235.987 48.8976 235.279 48.189 235.279C47.4803 235.279 47.4803 235.279 47.4803 235.279H4.96063L25.5118 201.263ZM569.763 316.066L593.149 278.507C593.149 277.798 593.149 277.798 593.149 277.09C593.149 276.381 593.149 276.381 593.149 275.672L571.889 240.239H612.283L634.96 277.09L611.574 315.357C611.574 316.066 611.574 317.483 611.574 317.483L632.834 352.916H592.441L569.763 316.066ZM428.031 316.066L451.417 278.507C451.417 277.798 451.417 277.798 451.417 277.09C451.417 276.381 451.417 276.381 451.417 275.672L430.157 240.239H470.551L493.228 277.09L469.842 315.357C469.842 316.066 469.842 317.483 469.842 317.483L491.102 352.916H450.708L428.031 316.066ZM286.299 316.066L309.685 278.507C309.685 277.798 309.685 277.798 309.685 277.09C309.685 276.381 309.685 276.381 309.685 275.672L288.425 240.239H328.819L351.496 277.09L328.11 315.357C328.11 316.066 328.11 317.483 328.11 317.483L349.37 352.916H308.976L286.299 316.066ZM144.567 316.066L167.953 278.507C167.953 277.798 167.953 277.798 167.953 277.09C167.953 276.381 167.953 276.381 167.953 275.672L146.693 240.239H187.087L209.764 277.09L186.378 315.357C186.378 316.066 186.378 317.483 186.378 317.483L207.638 352.916H167.244L144.567 316.066ZM2.83464 316.066L26.2205 278.507C26.2205 277.798 26.2205 277.798 26.2205 277.09C26.2205 276.381 26.2205 276.381 26.2205 275.672L4.96063 240.239H45.3543L68.0315 277.09L44.6456 315.357C44.6456 316.066 44.6456 317.483 44.6456 317.483L65.9055 352.916H25.5118L2.83464 316.066ZM475.512 316.066L497.48 279.924H543.543L544.252 279.215L545.669 278.507L566.929 243.074L587.48 277.09L565.511 313.94H519.449C519.449 313.94 518.74 313.94 518.031 313.94C518.031 314.649 517.323 314.649 517.323 315.357L496.063 350.79L475.512 316.066ZM333.779 316.066L355.748 279.924H401.811C401.811 279.924 401.811 279.924 402.519 279.924C403.228 279.924 403.228 279.215 403.228 279.215L403.937 278.507L425.197 243.074L445.748 277.09L423.779 313.94H377.716H376.299C376.299 314.649 375.59 314.649 375.59 315.357L354.331 350.79L333.779 316.066ZM50.3149 316.066L72.2834 279.924H118.346C118.346 279.924 118.346 279.924 119.055 279.924C119.764 279.924 119.764 279.215 119.764 279.215L120.472 278.507L141.732 243.074L162.283 277.09L140.315 313.94H94.2519C94.2519 313.94 94.2519 313.94 93.5433 313.94H92.8346C92.8346 314.649 92.1259 314.649 92.1259 315.357L70.8661 350.79L50.3149 316.066ZM192.047 316.066L214.016 279.924H260.079L260.787 279.215L262.205 278.507L283.464 243.074L304.016 277.09L282.047 313.94H235.984C234.567 313.94 234.567 314.649 233.858 315.357L212.598 350.79L192.047 316.066ZM521.575 318.9H565.511L588.189 357.168C588.897 357.877 588.897 357.877 588.897 357.877C588.897 357.877 588.897 357.877 589.606 357.877V358.586H632.834L612.283 392.601H568.346L545.669 355.042L544.96 353.625C544.96 352.916 544.252 352.916 544.252 352.916H501.023L521.575 318.9ZM379.842 318.9H423.779L446.456 357.168C447.165 357.877 447.165 357.877 447.165 357.877C447.874 357.877 447.874 358.586 447.874 358.586H491.102L470.551 392.601H426.614L403.228 353.625C403.228 352.916 402.519 352.916 402.519 352.916C401.811 352.916 401.811 352.916 401.811 352.916H359.291L379.842 318.9ZM238.11 318.9H282.047L304.724 357.168C305.433 357.877 305.433 357.877 305.433 357.877C306.142 357.877 306.142 357.877 306.142 358.586H349.37L328.819 392.601H284.882L261.496 353.625L260.787 352.916H217.559L238.11 318.9ZM96.3779 318.9H140.315L162.992 357.168C163.701 357.877 163.701 357.877 163.701 357.877C164.409 357.877 164.409 358.586 164.409 358.586C165.118 358.586 165.118 358.586 165.118 358.586H207.638L187.087 392.601H143.15L119.764 353.625C119.764 353.625 119.764 353.625 119.055 353.625C118.346 353.625 118.346 352.916 118.346 352.916H75.8267L96.3779 318.9ZM640.63 434.412L664.015 396.853C664.015 396.145 664.015 395.436 664.015 395.436C664.015 394.727 664.015 394.019 664.015 394.019L642.756 358.586H683.149L705.826 395.436L682.441 432.995C682.441 433.704 682.441 433.704 682.441 434.412C682.441 435.121 682.441 435.121 682.441 435.83L703.7 471.263H663.307L640.63 434.412ZM498.897 434.412L522.283 396.853C522.283 396.145 522.283 395.436 522.283 395.436C522.283 394.727 522.283 394.019 522.283 394.019L501.023 358.586H541.417L564.094 395.436L540.708 432.995C540.708 433.704 540.708 433.704 540.708 434.412C540.708 435.121 540.708 435.121 540.708 435.83L561.968 471.263H521.575L498.897 434.412ZM357.165 434.412L380.551 396.853C380.551 396.145 380.551 395.436 380.551 395.436C380.551 394.727 380.551 394.019 380.551 394.019L359.291 358.586H399.685L422.362 395.436L398.976 432.995C398.976 433.704 398.976 433.704 398.976 434.412C398.976 435.121 398.976 435.121 398.976 435.83L420.236 471.263H379.842L357.165 434.412ZM215.433 434.412L238.819 396.853C238.819 396.145 238.819 395.436 238.819 395.436C238.819 394.727 238.819 394.019 238.819 394.019L217.559 358.586H257.953L280.63 395.436L257.244 432.995C257.244 433.704 257.244 433.704 257.244 434.412C257.244 435.121 257.244 435.121 257.244 435.83L278.504 471.263H238.11L238.819 467.719L237.401 469.845L215.433 434.412ZM73.7007 434.412L97.0866 396.853C97.0866 396.145 97.0866 395.436 97.0866 395.436C97.0866 394.727 97.0866 394.019 97.0866 394.019L75.8267 358.586H116.22L138.898 395.436L115.512 432.995C115.512 433.704 115.512 433.704 115.512 434.412C115.512 435.121 115.512 435.121 115.512 435.83L136.772 471.263H96.3779L73.7007 434.412ZM546.378 434.412L568.346 397.562H614.409C615.118 397.562 615.826 397.562 615.826 396.853L637.795 361.42L658.346 395.436L636.378 431.578H590.315L589.606 432.286C588.897 432.286 588.897 432.286 588.897 432.286C588.897 432.286 588.897 432.995 588.189 432.995L566.929 468.428L546.378 434.412ZM404.645 434.412L426.614 397.562H472.677C473.386 397.562 474.094 397.562 474.094 396.853L496.063 361.42L516.614 395.436L494.645 431.578H448.582L447.874 432.286C447.165 432.286 447.165 432.286 447.165 432.286C447.165 432.286 447.165 432.995 446.456 432.995L425.197 468.428L404.645 434.412ZM262.913 434.412L284.882 397.562H330.945C331.653 397.562 332.362 397.562 332.362 396.853L354.331 361.42L374.882 395.436L352.913 431.578H306.85L306.142 432.286C305.433 432.286 305.433 432.286 305.433 432.286C305.433 432.286 305.433 432.286 304.724 432.995L283.464 468.428L262.913 434.412ZM121.181 434.412L143.15 397.562H189.212C189.212 397.562 189.212 397.562 189.921 397.562C190.63 397.562 190.63 397.562 190.63 396.853H191.338L212.598 361.42L233.149 395.436L211.181 431.578H165.118C165.118 431.578 165.118 431.578 164.409 431.578V432.286C164.409 432.286 163.701 432.995 162.992 432.995L141.732 468.428L121.181 434.412ZM592.441 437.247H636.378L659.055 475.515C659.055 475.515 659.763 475.515 659.763 476.223C660.472 476.223 661.181 476.223 661.181 476.223H703.7L683.149 510.239H639.212L616.535 472.68C616.535 471.971 615.826 471.971 615.118 471.263H571.889L592.441 437.247ZM450.708 437.247H494.645L517.323 475.515L518.031 476.223C518.74 476.223 519.449 476.223 519.449 476.223H561.968L541.417 510.239H497.48L474.803 472.68C474.803 471.971 474.094 471.971 473.386 471.263H430.157L450.708 437.247ZM308.976 437.247H352.913L375.59 475.515C375.59 475.515 376.299 476.223 377.008 476.223H420.236L399.685 510.239H355.748L333.071 472.68C333.071 471.971 332.362 471.971 331.653 471.263H288.425L308.976 437.247ZM167.244 437.247H211.181L233.858 475.515C234.567 475.515 234.567 476.223 234.567 476.223H235.984H278.504L257.953 510.239H214.016L191.338 472.68C191.338 471.971 190.63 471.971 189.921 471.263C189.212 471.263 189.212 471.263 189.212 471.263H146.693L167.244 437.247ZM25.5118 437.247H69.4488L92.1259 475.515C92.1259 475.515 92.8346 476.223 93.5433 476.223H94.2519H136.772L116.22 510.239H72.2834L49.6063 472.68C49.6063 471.971 48.8976 471.971 48.189 471.263C47.4803 471.263 47.4803 471.263 47.4803 471.263H4.96063L25.5118 437.247ZM569.763 552.759L593.149 514.491C593.149 514.491 593.149 513.782 593.149 513.074C593.149 513.074 593.149 512.365 593.149 511.656L571.889 476.223H612.283L634.96 513.074L611.574 551.341C611.574 551.341 611.574 552.05 611.574 552.759C611.574 552.759 611.574 553.467 611.574 554.176L632.834 589.609H592.441L569.763 552.759ZM428.031 552.759L451.417 514.491C451.417 514.491 451.417 513.782 451.417 513.074C451.417 513.074 451.417 512.365 451.417 511.656L430.157 476.223H470.551L493.228 513.074L469.842 551.341C469.842 551.341 469.842 552.05 469.842 552.759C469.842 552.759 469.842 553.467 469.842 554.176L491.102 589.609H450.708L428.031 552.759ZM286.299 552.759L309.685 514.491C309.685 514.491 309.685 513.782 309.685 513.074C309.685 513.074 309.685 512.365 309.685 511.656L288.425 476.223H328.819L351.496 513.074L328.11 551.341C328.11 551.341 328.11 552.05 328.11 552.759C328.11 552.759 328.11 553.467 328.11 554.176L349.37 589.609H308.976L286.299 552.759ZM144.567 552.759L167.953 514.491C167.953 514.491 167.953 513.782 167.953 513.074C167.953 513.074 167.953 512.365 167.953 511.656L146.693 476.223H187.087L209.764 513.074L186.378 551.341C186.378 551.341 186.378 552.05 186.378 552.759C186.378 552.759 186.378 553.467 186.378 554.176L207.638 589.609H167.244L144.567 552.759ZM2.83464 552.759L26.2205 514.491C26.2205 514.491 26.2205 513.782 26.2205 513.074C26.2205 513.074 26.2205 512.365 26.2205 511.656L4.96063 476.223H45.3543L68.0315 513.074L44.6456 551.341C44.6456 551.341 44.6456 552.05 44.6456 552.759C44.6456 552.759 44.6456 553.467 44.6456 554.176L65.9055 589.609H25.5118L2.83464 552.759ZM475.512 552.759L497.48 515.908H543.543C544.252 515.2 544.96 515.2 544.96 515.2L545.669 514.491L566.929 479.058L587.48 513.074L565.511 549.924H519.449C518.74 549.924 518.031 550.633 518.031 550.633C517.323 550.633 517.323 551.341 517.323 551.341L496.063 586.774L475.512 552.759ZM404.645 516.617L403.937 515.2L425.197 479.058L445.748 513.074L423.779 549.924H377.716L376.299 550.633C376.299 550.633 375.59 550.633 375.59 551.341L354.331 586.774L333.779 552.759L355.748 515.908H401.811C401.811 515.908 401.811 515.908 402.519 515.908L404.645 516.617ZM192.047 552.759L214.016 515.908H260.079C260.787 515.2 261.496 515.2 261.496 515.2H262.205L283.464 479.058L304.016 513.074L282.047 549.924H235.984C235.984 549.924 235.984 549.924 235.275 549.924C234.567 549.924 234.567 550.633 233.858 551.341L212.598 586.774L192.047 552.759ZM50.3149 552.759L72.2834 515.908H118.346C118.346 515.908 118.346 515.908 119.055 515.908C119.764 515.2 119.764 515.2 119.764 515.2H120.472L141.732 479.058L162.283 513.074L140.315 549.924H94.2519C94.2519 549.924 94.2519 549.924 93.5433 549.924L92.8346 550.633C92.8346 550.633 92.1259 550.633 92.1259 551.341L70.8661 586.774L50.3149 552.759ZM521.575 555.593H565.511L588.189 593.861L588.897 594.57C589.606 594.57 589.606 594.57 589.606 594.57H632.834L612.283 628.585H568.346L545.669 590.318C545.669 590.318 544.96 589.609 544.252 589.609H501.023L521.575 555.593ZM379.842 555.593H423.779L446.456 593.861L447.165 594.57C447.874 594.57 447.874 594.57 447.874 594.57H491.102L470.551 628.585H426.614L403.937 590.318C403.937 590.318 403.228 589.609 402.519 589.609C401.811 589.609 401.811 589.609 401.811 589.609H359.291L379.842 555.593ZM238.11 555.593H282.047L304.724 593.861L305.433 594.57C306.142 594.57 306.142 594.57 306.142 594.57H349.37L328.819 628.585H284.882L262.205 590.318C262.205 590.318 261.496 589.609 260.787 589.609H217.559L238.11 555.593ZM96.3779 555.593H140.315L162.992 593.861C163.701 593.861 163.701 593.861 163.701 593.861C164.409 593.861 164.409 594.57 164.409 594.57C165.118 594.57 165.118 594.57 165.118 594.57H207.638L187.087 628.585H143.15L120.472 590.318C120.472 590.318 119.764 589.609 119.055 589.609C118.346 589.609 118.346 589.609 118.346 589.609H75.8267L96.3779 555.593ZM357.165 670.396L380.551 632.837C380.551 632.129 380.551 632.129 380.551 631.42C380.551 630.711 380.551 630.711 380.551 630.003L359.291 594.57H399.685L422.362 631.42L398.976 669.688V670.396C398.976 671.105 398.976 671.814 398.976 671.814L420.236 707.247H379.842L357.165 670.396ZM215.433 670.396L238.819 632.837C238.819 632.129 238.819 632.129 238.819 631.42C238.819 630.711 238.819 630.711 238.819 630.003L217.559 594.57H257.953L280.63 631.42L257.244 669.688V670.396C257.244 671.105 257.244 671.814 257.244 671.814L278.504 707.247H238.11L215.433 670.396ZM73.7007 670.396L97.0866 632.837C97.0866 632.129 97.0866 632.129 97.0866 631.42C97.0866 630.711 97.0866 630.711 97.0866 630.003L75.8267 594.57H116.22L138.898 631.42L115.512 669.688V670.396C115.512 671.105 115.512 671.814 115.512 671.814L136.772 707.247H96.3779L73.7007 670.396ZM546.378 670.396L568.346 634.255H614.409L615.118 633.546H615.826L616.535 632.837L637.795 597.404L658.346 631.42L636.378 668.27H590.315C589.606 668.27 588.897 668.27 588.897 668.27C588.897 668.979 588.897 668.979 588.189 668.979L566.929 705.121L546.378 670.396ZM404.645 670.396L426.614 634.255H472.677L473.386 633.546H474.094L474.803 632.837L496.063 597.404L516.614 631.42L494.645 668.27H448.582C447.874 668.27 447.165 668.27 447.165 668.27C447.165 668.979 447.165 668.979 446.456 668.979L425.197 705.121L404.645 670.396ZM262.913 670.396L284.882 634.255H330.945L331.653 633.546H332.362L333.071 632.837L354.331 597.404L374.882 631.42L352.913 668.27H306.85C306.142 668.27 305.433 668.27 305.433 668.27C305.433 668.979 304.724 668.979 304.724 668.979L283.464 705.121L262.913 670.396ZM121.181 670.396L143.15 634.255H189.212C189.212 634.255 189.212 634.255 189.921 634.255V633.546L191.338 632.837L212.598 597.404L233.149 631.42L211.181 668.27H165.118C165.118 668.27 165.118 668.27 164.409 668.27C164.409 668.979 163.701 668.979 162.992 668.979L141.732 705.121L121.181 670.396Z" fill="#63CAE4"/>
</svg>
