<svg width="300" height="87" viewBox="0 0 300 87" fill="none" xmlns="http://www.w3.org/2000/svg">
<g clip-path="url(#clip0_63_12)">
<path d="M255.706 70.9132V0H236.906V87H299.965V70.9132H255.706Z" fill="#FF0000"/>
<path fill-rule="evenodd" clip-rule="evenodd" d="M179.026 35.4566H160.227V0H223.286V16.0868H179.026V35.4566ZM179.026 35.4566L219.503 35.4566V51.5434H179.026L179.026 35.4566ZM160.227 51.5434H179.026V87H160.227V51.5434Z" fill="#FF0000"/>
<path d="M141.449 7.99143C138.775 5.42939 135.593 3.45541 132.107 2.1969C127.62 0.620589 122.882 -0.124841 118.127 -0.00271934H79.1797V86.9973H97.979V51.5407H118.127C122.86 51.6548 127.575 50.9095 132.042 49.341C135.551 48.0908 138.756 46.1163 141.449 43.5465C143.789 41.2351 145.582 38.4309 146.696 35.339C148.889 29.1692 148.889 22.4344 146.696 16.2646C145.586 13.1515 143.794 10.3249 141.449 7.99143ZM128.292 30.7427C127.327 32.0299 126.047 33.0475 124.574 33.6975C122.862 34.4282 121.049 34.8985 119.196 35.0927C117.089 35.3407 114.969 35.4613 112.847 35.4539H97.979V16.0841H112.864C114.985 16.0766 117.106 16.1972 119.213 16.4452C121.068 16.6363 122.882 17.1125 124.591 17.8569C126.06 18.4976 127.336 19.5105 128.292 20.7952C129.277 22.2441 129.773 23.9696 129.706 25.7197C129.795 27.5031 129.298 29.2665 128.292 30.7427Z" fill="#FF0000"/>
<path fill-rule="evenodd" clip-rule="evenodd" d="M18.7993 35.4566H0V0H63.0592V16.0868H18.7993V35.4566ZM18.7993 35.4566L59.2763 35.4566V51.5434H18.7993L18.7993 35.4566ZM0 87H63.0592V70.9132H18.7993V51.5434H0V87Z" fill="#FF0000"/>
</g>
<defs>
<clipPath id="clip0_63_12">
<rect width="300" height="87" fill="white"/>
</clipPath>
</defs>
</svg>
